<svg xmlns="http://www.w3.org/2000/svg">
  <symbol id="phone" viewBox="0 0 14 15">
    <path
      d="M13.7455 13.0923C13.4909 13.5935 12.9818 13.8441 12.4727 14.0947C11.8364 14.4706 11.3273 14.5959 10.6909 14.5959C9.8 14.5959 8.90909 14.22 8.14545 13.9694C7.50909 13.7188 7 13.4682 6.36364 13.2176C4.58182 12.09 2.54545 10.0853 1.52727 8.45643C1.14545 7.82996 0.890909 7.32878 0.636364 6.70231C0.381818 5.82525 0 5.07349 0 4.07113C0 3.44466 0.127273 2.81819 0.509091 2.19172C0.763636 1.69054 1.01818 1.18936 1.52727 0.938771C1.90909 0.938771 2.54545 0.813477 2.92727 0.813477C3.05455 0.813477 3.05455 0.813477 3.18182 0.813477C3.43636 0.938771 3.56364 1.31465 3.69091 1.56524C3.94545 2.19172 4.32727 2.69289 4.58182 3.31936C4.83636 3.56995 5.09091 3.82054 5.09091 4.07113C5.09091 4.6976 3.30909 5.57466 3.30909 6.07584C3.30909 6.32643 3.56364 6.70231 3.69091 6.9529C4.70909 8.70702 5.98182 9.95997 7.76364 10.9623C8.01818 11.0876 8.4 11.3382 8.65455 11.3382C9.16364 11.3382 10.0545 9.58408 10.6909 9.58408C10.9455 9.58408 11.2 9.83467 11.4545 10.0853C11.9636 10.4611 12.6 10.7117 13.1091 11.0876C13.3636 11.2129 13.7455 11.3382 13.8727 11.5888C13.8727 11.7141 13.8727 11.7141 13.8727 11.8394C14 12.09 13.8727 12.7164 13.7455 13.0923Z" />
  </symbol>
  <symbol id="leaf" viewBox="0 0 41 41">
    <path
      d="M6.68662 24.4709C6.68662 24.9568 6.92954 25.4426 6.92954 25.9284C6.92954 27.8718 7.17246 31.0297 7.17246 31.0297H8.38704C8.38704 31.0297 8.38704 25.9284 7.65829 23.2563C6.92954 20.3413 6.68662 14.9971 8.38704 11.1104L7.17246 10.6246C7.17246 10.6246 5.71495 13.5396 5.71495 18.1551C5.71495 21.0701 5.95787 22.2847 6.20078 23.4992C5.22911 22.7705 2.55701 20.3413 2.79993 15.24C3.28577 9.41001 8.38704 4.06581 8.38704 4.06581C8.38704 4.06581 17.375 12.5679 9.35872 22.0417L10.3304 22.7705C10.3304 22.7705 13.9742 18.6409 13.9742 14.0254C13.9742 9.41001 12.0308 5.52332 8.38704 2.36539C8.38704 2.36539 2.07118 8.43834 1.58534 15.7259C1.34243 22.5276 6.4437 24.9568 6.4437 24.9568L6.68662 24.4709Z" />
    <path
      d="M19.3183 18.1551C10.3304 20.8272 10.8162 29.5722 11.0591 31.5156C7.9012 34.6735 6.4437 37.5885 6.4437 37.5885L7.41537 38.0743C16.6462 22.7705 30.9784 25.6855 30.9784 25.6855V24.4709C22.2334 23.4993 16.1604 26.9001 12.0308 30.301C11.7879 27.143 13.2454 19.6126 22.4763 18.8838C33.1647 18.6409 38.2659 24.9568 38.2659 24.9568C32.6788 33.9447 26.363 35.1593 22.4763 35.6452C18.3467 36.3739 13.2454 33.4589 13.2454 33.4589L12.7596 34.4306C12.7596 34.4306 17.1321 37.3456 22.7192 36.8597C34.8651 35.4022 39.4805 24.7138 39.4805 24.7138C38.2659 22.2847 29.278 15.7259 19.3183 18.1551Z" />
  </symbol>
  <symbol id="truck" viewBox="0 0 41 41">
    <path
      d="M6.84767 16.6328L9.01168 14.9016H9.22808C9.87729 14.9016 10.3101 14.4688 10.3101 13.8196C10.3101 13.3868 10.0937 13.1704 9.87729 12.954V8.40961H8.79528V12.954C8.36248 13.1704 8.14608 13.3868 8.14608 13.8196V14.036L5.98207 15.7672L6.84767 16.6328Z" />
    <path
      d="M39.7406 28.3185V21.3936C39.7406 19.2296 38.875 18.364 38.875 18.364C38.875 18.364 36.711 15.5508 35.4126 13.8196C34.1142 12.0884 32.383 12.0884 32.383 12.0884H25.0254V11.0064C25.0254 9.49159 23.9434 8.40959 22.4285 8.40959H16.1529C14.6381 6.24558 12.0413 4.73077 9.22809 4.73077C4.46727 4.73077 0.788452 8.62599 0.788452 13.3868C0.788452 15.3344 1.43765 17.0656 2.51966 18.5804V28.1021C2.51966 29.6169 3.60166 30.6989 5.11647 30.6989H6.19848V30.9153C6.19848 33.5121 8.36249 35.6761 10.9593 35.6761C13.5561 35.6761 15.7201 33.5121 15.7201 30.9153C15.7201 30.6989 15.7201 30.6989 15.7201 30.6989H22.2121H22.4285C23.0777 30.6989 24.5926 30.6989 26.5402 30.6989V30.9153C26.5402 33.5121 28.7042 35.6761 31.301 35.6761C33.8978 35.6761 36.0618 33.5121 36.0618 30.9153C36.0618 30.6989 36.0618 30.6989 36.0618 30.6989C36.2782 30.6989 36.4946 30.6989 36.4946 30.6989C40.1734 30.9153 39.7406 28.3185 39.7406 28.3185ZM38.6586 20.7444C38.6586 20.7444 38.6586 20.9608 38.6586 21.3936H30.219C29.7862 21.3936 29.3534 20.9608 29.3534 20.528V17.0656C29.3534 16.6328 29.7862 16.2 30.219 16.2H35.8454C36.4946 16.8492 37.1438 17.7148 37.5766 18.364C38.6586 19.6624 38.6586 20.7444 38.6586 20.7444ZM9.22809 6.02918C13.3397 6.02918 16.8021 9.27519 16.8021 13.6032C16.8021 17.9312 13.3397 20.9608 9.22809 20.9608C5.11647 20.9608 1.87046 17.4984 1.87046 13.3868C1.87046 9.27519 5.11647 6.02918 9.22809 6.02918ZM10.7429 34.5941C8.79529 34.5941 7.28048 33.0793 7.28048 31.1317C7.28048 29.1841 8.79529 27.6693 10.7429 27.6693C12.6905 27.6693 14.2053 29.1841 14.2053 31.1317C14.2053 33.0793 12.6905 34.5941 10.7429 34.5941ZM15.0709 29.6169C14.4217 27.8857 12.6905 26.3709 10.7429 26.3709C8.79529 26.3709 7.06408 27.6693 6.41488 29.6169H4.90007C4.25087 29.6169 3.60166 28.9677 3.60166 28.3185V19.6624C5.11647 20.9608 7.06408 21.8264 9.22809 21.8264C13.9889 21.8264 17.6677 17.9312 17.6677 13.3868C17.6677 12.0884 17.2349 10.79 16.8021 9.708H22.4285C23.0777 9.708 23.7269 10.3572 23.7269 11.0064V28.3185C23.7269 28.9677 23.0777 29.6169 22.4285 29.6169H15.0709ZM31.0846 34.5941C29.137 34.5941 27.6222 33.0793 27.6222 31.1317C27.6222 29.1841 29.137 27.6693 31.0846 27.6693C33.0322 27.6693 34.547 29.1841 34.547 31.1317C34.547 33.0793 33.0322 34.5941 31.0846 34.5941ZM36.4946 29.8333H35.629C34.9798 27.8857 33.2486 26.5873 31.301 26.5873C29.137 26.5873 27.4058 27.8857 26.973 29.8333H24.809C25.2418 29.4005 25.4582 28.9677 25.4582 28.3185V12.954C25.4582 12.954 30.219 12.954 32.1666 12.954C34.1142 12.954 34.9798 14.2524 34.9798 14.2524C34.9798 14.2524 34.7634 14.6852 35.1962 15.118H30.219C29.137 15.118 28.4878 15.9836 28.4878 16.8492V20.3116C28.4878 21.3936 29.3534 22.0428 30.219 22.0428H38.875C38.875 23.7741 38.875 26.3709 38.875 27.6693C38.6586 30.0497 36.4946 29.8333 36.4946 29.8333Z" />
  </symbol>
  <symbol id="measure" viewBox="0 0 41 41">
    <path
      d="M12.5679 9.16711C12.5679 9.65294 13.5396 10.1388 14.9971 10.1388C16.4546 10.1388 17.4263 9.65294 17.4263 9.16711C17.4263 8.68127 16.4546 8.19543 14.9971 8.19543C13.7825 8.19543 12.5679 8.43835 12.5679 9.16711Z" />
    <path
      d="M38.8031 18.1551C38.8031 15.7259 36.8597 13.7825 34.4306 13.7825H33.4589H12.0821C12.0821 13.7825 6.25207 14.0254 3.57998 9.41001C3.82289 6.00916 6.49499 3.57998 9.89584 3.57998H19.6126C23.2563 3.57998 25.9284 6.49499 25.9284 9.89584V11.1104H27.143V10.1388C27.143 5.76624 23.7422 2.36539 19.3696 2.36539H10.1388C5.76624 2.36539 2.36539 5.76624 2.36539 10.1388V13.2967V13.7825V21.5559C2.36539 25.9284 5.76624 29.3293 10.1388 29.3293H11.8392V28.1147H9.89584C6.25207 28.1147 3.57998 25.1997 3.57998 21.7988V13.7825V13.2967V11.5963C4.30873 12.5679 6.73791 14.9971 11.8392 14.9971C19.1267 14.9971 33.216 14.9971 33.216 14.9971H34.4306C36.131 14.9971 37.3456 16.2117 37.3456 17.9121V19.3696V19.8555C37.3456 21.5559 36.131 22.7705 34.4306 22.7705H34.1876H18.8838C16.4546 22.7705 14.5113 24.7138 14.5113 27.143V33.7018C14.5113 36.131 16.4546 38.0743 18.8838 38.0743H34.4306C36.8597 38.0743 38.8031 36.131 38.8031 33.7018V27.143C38.8031 27.143 38.8031 21.313 38.8031 19.6126C38.8031 19.6126 38.8031 19.6126 38.8031 19.3696V18.1551ZM37.3456 34.1876C37.3456 35.8881 36.131 37.1027 34.4306 37.1027H18.6409C16.9405 37.1027 15.7259 35.8881 15.7259 34.1876V27.143C15.7259 25.4426 16.9405 24.228 18.6409 24.228H23.2563V28.3576H24.4709V24.228H30.058H32.2443V28.3576H33.4589V24.228H34.4306C35.6451 24.228 36.8597 23.7422 37.5885 23.0134V34.1876H37.3456Z" />
  </symbol>
  <symbol id="human" viewBox="0 0 68 69">
    <path
      d="M62.03 19.665C62.72 18.975 63.41 18.285 63.755 17.595C66.17 14.49 65.825 13.11 63.41 11.04C60.995 8.97 57.2 12.075 57.2 12.075C57.2 12.075 56.855 12.42 56.51 12.765C52.715 9.315 47.885 6.555 42.365 5.175C40.295 2.07 37.19 0 33.74 0C29.945 0 26.84 2.415 24.77 5.52C20.285 6.9 16.145 9.315 12.695 12.42C12.005 12.075 10.625 10.695 8.9 10.35C6.485 10.005 4.07 11.73 3.725 14.145C3.725 15.525 5.105 17.595 6.83 19.665C3.725 24.495 2 30.015 2 36.225C2 53.82 16.49 68.31 34.43 68.31C40.64 68.31 46.85 66.585 51.68 63.48L50.645 61.065C46.16 49.68 47.195 42.435 47.54 38.985C48.575 35.19 52.37 30.015 54.44 27.255C55.82 25.53 57.89 23.805 59.96 21.735C62.72 25.875 64.1 30.705 64.1 36.225C64.1 44.16 60.65 51.405 55.475 56.925L57.545 58.65C63.41 52.785 66.86 44.85 66.86 36.225C66.86 30.015 65.135 24.495 62.03 19.665ZM33.74 2.76C38.225 2.76 41.675 6.9 41.675 12.075C41.675 17.25 38.225 21.39 33.74 21.39C29.255 21.39 25.805 17.595 25.805 12.075C25.805 6.555 29.255 2.76 33.74 2.76ZM33.74 24.15C39.605 24.15 44.435 18.63 44.435 12.075C44.435 10.695 44.09 9.66 43.745 8.28C47.885 9.66 51.335 11.73 54.44 14.49C51.68 16.905 47.54 20.01 45.47 21.39C42.365 23.805 37.19 26.22 33.05 26.22C28.91 26.22 26.84 24.495 23.735 23.115C20.975 21.735 16.49 16.56 14.42 14.49C17.18 12.075 20.285 10.35 23.39 8.97C23.39 10.005 23.045 11.04 23.045 12.075C23.045 18.975 27.875 24.15 33.74 24.15ZM4.76 36.225C4.76 31.05 6.14 26.22 8.555 21.735C9.245 22.425 9.59 22.77 9.59 22.77C9.59 22.77 18.215 32.775 19.94 35.19C21.665 37.605 19.595 39.33 18.215 45.54C17.18 50.37 17.18 56.925 17.18 60.03C9.59 54.51 4.76 45.885 4.76 36.225ZM58.235 19.665C56.855 21.045 52.025 25.185 47.885 31.74C43.745 38.295 44.435 43.47 44.78 47.265C45.125 51.06 46.16 54.51 46.505 55.89C46.85 56.925 48.23 60.72 48.575 61.755C44.435 63.825 39.605 65.205 34.775 65.205C29.255 65.205 24.425 63.825 19.94 61.41C19.94 49.68 20.63 47.955 20.975 46.23C20.975 44.505 22.01 41.055 23.045 38.295C23.735 35.88 22.7 33.81 21.665 32.775C20.63 31.74 10.625 19.665 8.9 17.25C6.83 14.835 6.485 13.8 8.21 13.11C9.935 12.075 14.42 17.595 16.49 20.01C18.215 22.425 26.15 28.98 33.395 28.635C40.64 28.29 45.815 24.495 47.885 23.115C49.61 21.735 58.58 14.49 59.96 13.455C61.34 12.42 63.065 13.455 62.72 14.49C62.375 15.525 59.615 18.285 58.235 19.665Z" />
  </symbol>
  <symbol id="smile" viewBox="0 0 68 68">
    <path
      d="M34 2C16.4314 2 2 16.4314 2 34C2 51.5686 16.4314 66 34 66C51.5686 66 66 51.5686 66 34C66 16.4314 51.5686 2 34 2ZM34 63.4902C17.6863 63.4902 4.5098 50.3137 4.5098 34C4.5098 17.6863 17.6863 4.5098 34 4.5098C50.3137 4.5098 63.4902 17.6863 63.4902 34C63.4902 50.3137 50.3137 63.4902 34 63.4902Z" />
    <path
      d="M34 50.6275C23.0196 50.6275 16.4314 40.902 16.4314 40.902L14.2353 42.4706C23.0196 53.7647 34 53.451 34 53.451C34 53.451 44.9804 54.0785 53.7647 42.4706L51.5686 40.902C51.5686 40.902 44.9804 50.6275 34 50.6275Z" />
    <path
      d="M23.3333 37.451C30.8627 34 32.1176 29.6078 32.1176 27.4118C32.1176 24.902 30.549 22.0784 27.7255 22.0784C24.5882 22.0784 23.3333 23.6471 23.3333 23.6471C23.3333 23.6471 22.0784 22.0784 18.9412 22.0784C16.1176 22.0784 14.549 25.2157 14.549 27.4118C14.549 29.6078 15.8039 34 23.3333 37.451ZM23.3333 26.7843C24.902 24.2745 29.2941 23.9608 29.6078 27.098C29.6078 31.4902 23.3333 34.6275 23.3333 34.6275C23.3333 34.6275 17.0588 31.4902 17.0588 27.098C17.3725 23.9608 21.7647 24.2745 23.3333 26.7843Z" />
    <path
      d="M44.6667 37.451C52.1961 34 53.451 29.6078 53.451 27.7255C53.451 25.2157 51.8824 22.3922 49.0588 22.3922C45.9216 22.3922 44.6667 23.9608 44.6667 23.9608C44.6667 23.9608 43.4118 22.3922 40.2745 22.3922C37.451 22.3922 35.8824 25.5294 35.8824 27.7255C35.8824 29.6078 37.1373 34 44.6667 37.451ZM44.6667 26.7843C46.2353 24.2745 50.6274 23.9608 50.9412 27.098C50.9412 31.4902 44.6667 34.6274 44.6667 34.6274C44.6667 34.6274 38.3922 31.4902 38.3922 27.098C38.7059 23.9608 43.098 24.2745 44.6667 26.7843Z" />
  </symbol>
  <symbol id="muscle" viewBox="0 0 68 68">
    <path
      d="M51.9372 15.4497C45.9103 15.4497 38.1614 19.7547 38.4484 28.6515C38.4484 28.6515 26.6816 24.9206 23.2377 37.2614C23.2377 37.2614 21.2287 32.9565 18.6457 30.9475C15.7758 28.9385 12.3318 23.7726 12.0448 21.1896C12.3318 19.7547 12.6188 19.7547 13.1928 19.4677C13.4798 19.4677 13.4798 21.7636 16.0628 22.0506C18.3587 21.7636 18.9327 21.1896 19.7937 20.0417L22.3767 17.1717C22.3767 17.1717 24.9596 13.7278 22.6637 12.0058C20.6547 9.99681 16.9238 6.26587 12.3318 7.12686C9.74888 7.70085 7.73991 9.70982 7.73991 9.70982L4.29596 12.8668C4.29596 12.8668 2 15.1627 2 19.7547C2 23.7726 2.86099 30.3735 2.86099 30.3735C2.86099 30.3735 3.72197 35.5394 4.00897 37.2614C4.29596 38.9834 6.59193 49.0282 12.0448 54.4811C15.4888 58.4991 17.4978 60.221 19.2197 60.508C22.0897 60.508 23.5247 58.7861 25.8206 58.7861C28.1166 58.7861 30.4126 60.508 35.2915 60.508C40.1704 60.508 51.0762 57.6381 55.6682 43.5753C59.9731 41.8533 66 38.6964 66 29.2255C66 19.7547 57.6771 15.4497 51.9372 15.4497ZM53.9462 41.8533C50.7892 54.4811 40.7444 57.9251 35.8655 58.4991C31.2735 58.4991 28.6906 56.7771 25.2466 56.7771C23.2377 56.7771 20.3677 58.4991 19.5067 58.4991C18.6457 58.4991 16.3498 56.4901 13.4798 53.3331C10.6099 50.1762 9.46188 47.3062 8.3139 45.0103C7.16592 42.7143 5.15695 33.5304 5.15695 33.5304C5.15695 33.5304 4.29596 24.3466 4.29596 20.3287C4.29596 16.5977 6.01794 14.3017 6.01794 14.3017C6.01794 14.3017 8.3139 12.2928 10.6099 10.2838C13.1928 8.27484 16.3498 9.70982 16.3498 9.70982C16.3498 9.70982 19.5067 11.7188 20.6547 12.8668C22.0897 14.0148 20.6547 15.1627 20.6547 15.1627C20.6547 15.1627 17.4978 19.1807 16.3498 19.4677C14.9148 19.7547 14.6278 16.3107 14.6278 16.3107C13.1928 16.8847 10.8969 17.4587 10.0359 20.0417C9.17489 23.1986 13.7668 29.7995 17.2108 32.9565C20.3677 36.1134 22.3767 41.2793 22.3767 41.2793L24.9596 40.4183C24.9596 40.4183 24.6726 34.3914 29.8386 31.2345C35.5785 28.0775 40.7444 32.3825 40.7444 32.3825C39.0224 18.0327 51.6502 17.7457 52.5112 17.7457C53.3722 17.7457 63.417 18.6067 64.278 28.6515C63.704 40.1313 53.9462 41.8533 53.9462 41.8533Z" />
  </symbol>
  <symbol id="check" viewBox="0 0 30 24" width="30" height="24">
    <path fill="#497870"
      d="M28.4138 1.65506C26.4828 -0.551832 23.1724 -0.551832 21.2414 1.3792L11.0345 11.5861L8.82758 9.3792C6.89655 7.44817 3.5862 7.44817 1.65517 9.3792H1.37931C-0.551726 11.3102 -0.551726 14.6206 1.37931 16.5516L7.44827 22.6206C8.55172 23.724 9.93103 23.9999 11.0345 23.9999C12.4138 23.9999 13.5172 23.4482 14.6207 22.6206L28.4138 8.82748C30.3448 6.89644 30.3448 3.5861 28.4138 1.65506Z" />
  </symbol>

  <symbol id="insta" viewBox="0 0 36.7 36.7">
    <path class="st0" d="M32.3,0H4.4C2,0,0,1.9,0,4.3v28.1c0,2.4,2,4.3,4.4,4.3h27.9c2.4,0,4.4-1.9,4.4-4.3V4.3C36.7,1.9,34.7,0,32.3,0
      M26.4,5.7c0-0.6,0.5-1.1,1.1-1.1H31c0.6,0,1.1,0.5,1.1,1.1v3.4c0,0.6-0.5,1.1-1.1,1.1h-3.4c-0.6,0-1.1-0.5-1.1-1.1L26.4,5.7
      L26.4,5.7z M18.4,11.3c3.9,0,7.1,3.1,7.1,7s-3.2,7-7.1,7s-7.1-3.1-7.1-7C11.3,14.5,14.5,11.3,18.4,11.3 M33.2,32.1
      c0,0.6-0.5,1.1-1.1,1.1H4.6c-0.6,0-1.1-0.5-1.1-1.1V14.9H8c-0.6,0.9-0.8,2.5-0.8,3.5c0,6.1,5,11.1,11.2,11.1s11.2-5,11.2-11.1
      c0-1-0.1-2.6-0.9-3.5h4.6L33.2,32.1L33.2,32.1z" />
  </symbol>

  <symbol id="tw" viewBox="0 0 36.7 36.7">
    <path class="st0" d="M35.7,3.7c-1.5,0.9-3.1,1.5-4.8,1.9c-1.4-1.5-3.3-2.4-5.5-2.4c-4.2,0-7.5,3.5-7.5,7.7c0,0.6,0.1,1.2,0.2,1.8
      C11.8,12.3,6.3,9.2,2.6,4.5c-0.6,1.1-1,2.5-1,3.9c0,2.7,1.3,5,3.4,6.4c-1.2,0-2.4-0.4-3.4-1V14c0,3.7,2.6,6.9,6,7.6
      c-0.6,0.2-1.3,0.3-2,0.3c-0.5,0-1,0-1.4-0.1c1,3.1,3.7,5.3,7,5.4c-2.6,2.1-5.8,3.3-9.4,3.3c-0.6,0-1.2,0-1.8-0.1
      c3.3,2.2,7.3,3.5,11.5,3.5c13.9,0,21.4-11.8,21.4-22c0-0.3,0-0.7,0-1c1.5-1.1,2.8-2.4,3.8-4c-1.3,0.6-2.8,1-4.3,1.2
      C33.9,7,35.1,5.5,35.7,3.7" />
  </symbol>

  <symbol id="vk" viewBox="0 0 36.7 36.7">
    <path class="st0" d="M36.5,26.8c0-0.1-0.1-0.2-0.1-0.2c-0.6-1.1-1.9-2.6-3.7-4.2l0,0l0,0l0,0h0c-0.8-0.8-1.3-1.3-1.5-1.6
      c-0.4-0.5-0.5-1-0.3-1.5c0.2-0.4,0.7-1.2,1.7-2.5c0.5-0.7,0.9-1.2,1.2-1.6c2.2-2.9,3.2-4.8,2.9-5.6l-0.1-0.2C36.5,9.1,36.3,9,36,8.9
      c-0.3-0.1-0.7-0.1-1.2,0l-5.5,0c-0.1,0-0.2,0-0.4,0c-0.2,0-0.2,0.1-0.2,0.1l-0.1,0l-0.1,0.1c-0.1,0-0.1,0.1-0.2,0.2
      c-0.1,0.1-0.1,0.2-0.2,0.3c-0.6,1.5-1.3,3-2,4.3c-0.5,0.8-0.9,1.5-1.3,2.1c-0.4,0.6-0.7,1-1,1.3c-0.3,0.3-0.5,0.5-0.7,0.7
      c-0.2,0.2-0.4,0.2-0.5,0.2c-0.1,0-0.2-0.1-0.3-0.1c-0.2-0.1-0.3-0.3-0.4-0.5c-0.1-0.2-0.2-0.4-0.2-0.7c0-0.3-0.1-0.6-0.1-0.8
      c0-0.2,0-0.5,0-0.9c0-0.4,0-0.7,0-0.8c0-0.5,0-1,0-1.6c0-0.6,0-1,0-1.3c0-0.3,0-0.7,0-1.1c0-0.4,0-0.7-0.1-0.9
      c0-0.2-0.1-0.4-0.2-0.6c-0.1-0.2-0.2-0.4-0.4-0.5c-0.2-0.1-0.4-0.2-0.6-0.3c-0.7-0.2-1.5-0.2-2.6-0.2c-2.4,0-3.9,0.1-4.6,0.5
      c-0.3,0.1-0.5,0.3-0.7,0.6c-0.2,0.3-0.3,0.4-0.1,0.5c0.8,0.1,1.3,0.4,1.6,0.8l0.1,0.2c0.1,0.2,0.2,0.5,0.3,0.9
      c0.1,0.4,0.1,0.9,0.2,1.4c0.1,0.9,0.1,1.7,0,2.4c-0.1,0.7-0.1,1.2-0.2,1.5c-0.1,0.4-0.1,0.7-0.3,0.9c-0.1,0.2-0.2,0.4-0.2,0.4
      c0,0.1-0.1,0.1-0.1,0.1c-0.2,0.1-0.3,0.1-0.5,0.1c-0.2,0-0.4-0.1-0.6-0.3c-0.3-0.2-0.5-0.4-0.8-0.7c-0.3-0.3-0.6-0.7-0.9-1.3
      c-0.3-0.6-0.7-1.2-1.1-2l-0.3-0.6c-0.2-0.4-0.5-0.9-0.8-1.6c-0.3-0.7-0.6-1.3-0.9-2C7.7,9.5,7.5,9.3,7.3,9.1L7.2,9.1
      C7.1,9,7,9,6.9,8.9C6.8,8.9,6.6,8.8,6.5,8.8l-5.2,0C0.7,8.8,0.3,9,0.1,9.2L0.1,9.3C0,9.4,0,9.5,0,9.6c0,0.1,0,0.3,0.1,0.5
      c0.8,1.8,1.6,3.5,2.5,5.2c0.9,1.7,1.7,3,2.3,4c0.7,1,1.3,2,2,2.9c0.7,0.9,1.1,1.5,1.4,1.7c0.2,0.3,0.4,0.4,0.5,0.6L9.3,25
      c0.3,0.3,0.8,0.7,1.3,1.1c0.6,0.4,1.2,0.8,2,1.3c0.7,0.4,1.6,0.8,2.5,1c1,0.3,1.9,0.4,2.8,0.3h2.2c0.4,0,0.8-0.2,1-0.4l0.1-0.1
      c0.1-0.1,0.1-0.2,0.1-0.4c0-0.2,0.1-0.3,0.1-0.5c0-0.5,0-1,0.1-1.5c0.1-0.4,0.2-0.8,0.3-1c0.1-0.2,0.3-0.4,0.4-0.6
      c0.2-0.2,0.3-0.2,0.3-0.3c0.1,0,0.1-0.1,0.2-0.1c0.3-0.1,0.7,0,1.1,0.3c0.4,0.3,0.8,0.7,1.2,1.1c0.4,0.4,0.8,0.9,1.3,1.5
      c0.5,0.5,1,1,1.3,1.2l0.4,0.2c0.3,0.2,0.6,0.3,1,0.4c0.4,0.1,0.8,0.2,1.1,0.1l4.9-0.1c0.5,0,0.9-0.1,1.1-0.2
      c0.3-0.2,0.4-0.3,0.5-0.5c0.1-0.2,0.1-0.4,0-0.7C36.6,27.1,36.6,26.9,36.5,26.8L36.5,26.8z M36.5,26.8" />
  </symbol>

  <symbol id="fb" viewBox="0 0 36.7 36.7">
    <path class="st0" d="M36.7,34.7c0,1.1-0.9,2-2,2h-9.4V22.5h4.8l0.7-5.5h-5.5v-3.5c0-1.6,0.4-2.7,2.7-2.7l2.9,0v-5
      c-0.5-0.1-2.2-0.2-4.3-0.2c-4.2,0-7.1,2.6-7.1,7.3V17h-4.8v5.5h4.8v14.2H2c-1.1,0-2-0.9-2-2V2c0-1.1,0.9-2,2-2h32.7c1.1,0,2,0.9,2,2
      V34.7z" />
  </symbol>

  <symbol id="left-arrow" viewBox="0 0 24 40" fill="none">
    <path d="M19 34L6.91422 21.9142C6.13317 21.1332 6.13317 19.8668 6.91421 19.0858L19 7" stroke-width="2"
      stroke-linecap="round" />
  </symbol>

  <symbol id="right-arrow" viewBox="0 0 24 40" fill="none">
    <path d="M5 6L17.0858 18.0858C17.8668 18.8668 17.8668 20.1332 17.0858 20.9142L5 33" stroke-width="2"
      stroke-linecap="round" />
  </symbol>

  <symbol id="candy" viewBox="0 0 46 46">
    <path
      d="M44.6903 7.1641L38.8069 1.27893C37.9858 0.457505 36.8943 0 35.7301 0C34.5659 0 33.4641 0.457505 32.6429 1.27893C31.7802 2.14195 31.3436 3.29611 31.3644 4.46067C30.2002 4.43987 29.0464 4.87658 28.1837 5.7396C27.3209 6.60262 26.8843 7.75678 26.9051 8.92134C25.7409 8.89015 24.5871 9.33725 23.7244 10.2003C22.8616 11.0633 22.425 12.2175 22.4458 13.382C21.2816 13.3612 20.1278 13.7979 19.2651 14.6609L4.71265 29.2179L0.315736 33.6162C0.191001 33.7306 0.0974494 33.8865 0.0454764 34.0529C0.0454764 34.0737 0.0350818 34.0841 0.0350818 34.1049C-0.0272858 34.344 -0.00649662 34.5832 0.0974494 34.7911C0.118239 34.8431 0.149422 34.8847 0.170212 34.9367C0.305341 35.1343 0.502839 35.2902 0.752309 35.363L4.31766 36.382L5.33633 39.9485C5.42988 40.2916 5.70014 40.5619 6.05355 40.6659L9.6189 41.6849L10.6376 45.2514C10.7103 45.5009 10.8663 45.6985 11.0741 45.8336C11.1157 45.8648 11.1573 45.8856 11.2093 45.9064C11.3444 45.9688 11.4899 46 11.6355 46C11.729 46 11.8226 45.9896 11.9265 45.9584C12.1136 45.9064 12.2695 45.8128 12.3943 45.6777L16.7912 41.2794L23.1007 34.9679C23.2254 35.0927 23.371 35.1759 23.5373 35.2278C23.9011 35.3318 24.2961 35.2382 24.5663 34.9679L32.0816 27.4503C32.487 27.0448 32.487 26.3897 32.0816 25.9842L31.9881 25.8906C32.4247 25.1731 32.6325 24.3517 32.6222 23.5303C33.7863 23.5511 34.9401 23.1144 35.8029 22.2514C36.6656 21.3883 37.1022 20.2342 37.0814 19.0696C38.2456 19.1008 39.3994 18.6537 40.2622 17.7907C41.1249 16.9277 41.5615 15.7735 41.5407 14.609C42.7049 14.6297 43.8587 14.193 44.7215 13.33C45.5426 12.5086 46 11.4064 46 10.2419C45.9688 9.0877 45.5218 7.98553 44.6903 7.1641ZM12.1344 42.9638L11.4484 40.5411C11.3548 40.198 11.0845 39.9277 10.7311 39.8237L7.16578 38.8151L6.14711 35.2486C6.05356 34.9055 5.7833 34.6352 5.42988 34.5312L3.00794 33.8449L5.42988 31.4222L14.5459 40.5411L12.1344 42.9638ZM24.4208 32.1501L21.9781 20.8476C21.8533 20.2862 21.3024 19.9326 20.7411 20.047C20.1798 20.1718 19.8264 20.7229 19.9407 21.2844L22.4043 32.6908L16.022 39.075L6.90591 29.9561L19.9927 16.8653L29.8468 26.7224L24.4208 32.1501ZM43.2246 11.8639C42.5282 12.5606 41.468 12.7373 40.5948 12.2902C40.1998 12.0927 39.7113 12.1655 39.3994 12.4878C39.0876 12.8101 39.0044 13.2884 39.2019 13.6835C39.6385 14.5674 39.4618 15.6279 38.7758 16.3142C38.0897 17.0005 37.0191 17.1876 36.1459 16.7405C35.7509 16.5429 35.2624 16.6157 34.9505 16.9381C34.6387 17.25 34.5555 17.7387 34.753 18.1338C35.1896 19.0176 35.0129 20.0782 34.3269 20.7645C33.6304 21.4611 32.5702 21.6379 31.697 21.1908C31.302 20.9932 30.8135 21.066 30.5017 21.3883C30.1898 21.7003 30.1067 22.189 30.3042 22.5841C30.5744 23.1352 30.616 23.7486 30.4289 24.3101L21.6662 15.5448C22.2276 15.368 22.8408 15.3992 23.3917 15.6695C23.7867 15.8671 24.2753 15.7943 24.5871 15.472C24.899 15.1496 24.9821 14.6713 24.7846 14.2762C24.348 13.3924 24.5248 12.3318 25.2108 11.6456C25.8968 10.9593 26.9675 10.7722 27.8406 11.2193C28.2356 11.4168 28.7242 11.344 29.036 11.0217C29.3479 10.7098 29.431 10.2211 29.2335 9.82595C28.7969 8.94213 28.9736 7.88155 29.6597 7.1953C30.3561 6.49864 31.4164 6.32188 32.2895 6.76899C32.6845 6.96655 33.1731 6.89376 33.4849 6.57143C33.7967 6.25949 33.8799 5.7708 33.6824 5.37568C33.2458 4.49186 33.4225 3.43128 34.1086 2.74503C34.5452 2.30832 35.1169 2.07957 35.7301 2.07957C36.3434 2.07957 36.9151 2.31872 37.3517 2.74503L43.2246 8.6302C43.6612 9.06691 43.8899 9.63879 43.8899 10.2523C43.8899 10.8553 43.6508 11.4376 43.2246 11.8639Z"
       />
  </symbol>
</svg>