<svg xmlns="http://www.w3.org/2000/svg">
  <symbol id="phone" viewBox="0 0 14 15">
    <path
      d="M13.7455 13.0923C13.4909 13.5935 12.9818 13.8441 12.4727 14.0947C11.8364 14.4706 11.3273 14.5959 10.6909 14.5959C9.8 14.5959 8.90909 14.22 8.14545 13.9694C7.50909 13.7188 7 13.4682 6.36364 13.2176C4.58182 12.09 2.54545 10.0853 1.52727 8.45643C1.14545 7.82996 0.890909 7.32878 0.636364 6.70231C0.381818 5.82525 0 5.07349 0 4.07113C0 3.44466 0.127273 2.81819 0.509091 2.19172C0.763636 1.69054 1.01818 1.18936 1.52727 0.938771C1.90909 0.938771 2.54545 0.813477 2.92727 0.813477C3.05455 0.813477 3.05455 0.813477 3.18182 0.813477C3.43636 0.938771 3.56364 1.31465 3.69091 1.56524C3.94545 2.19172 4.32727 2.69289 4.58182 3.31936C4.83636 3.56995 5.09091 3.82054 5.09091 4.07113C5.09091 4.6976 3.30909 5.57466 3.30909 6.07584C3.30909 6.32643 3.56364 6.70231 3.69091 6.9529C4.70909 8.70702 5.98182 9.95997 7.76364 10.9623C8.01818 11.0876 8.4 11.3382 8.65455 11.3382C9.16364 11.3382 10.0545 9.58408 10.6909 9.58408C10.9455 9.58408 11.2 9.83467 11.4545 10.0853C11.9636 10.4611 12.6 10.7117 13.1091 11.0876C13.3636 11.2129 13.7455 11.3382 13.8727 11.5888C13.8727 11.7141 13.8727 11.7141 13.8727 11.8394C14 12.09 13.8727 12.7164 13.7455 13.0923Z" />
  </symbol>
  <symbol id="leaf" viewBox="0 0 41 41">
    <path
      d="M6.68662 24.4709C6.68662 24.9568 6.92954 25.4426 6.92954 25.9284C6.92954 27.8718 7.17246 31.0297 7.17246 31.0297H8.38704C8.38704 31.0297 8.38704 25.9284 7.65829 23.2563C6.92954 20.3413 6.68662 14.9971 8.38704 11.1104L7.17246 10.6246C7.17246 10.6246 5.71495 13.5396 5.71495 18.1551C5.71495 21.0701 5.95787 22.2847 6.20078 23.4992C5.22911 22.7705 2.55701 20.3413 2.79993 15.24C3.28577 9.41001 8.38704 4.06581 8.38704 4.06581C8.38704 4.06581 17.375 12.5679 9.35872 22.0417L10.3304 22.7705C10.3304 22.7705 13.9742 18.6409 13.9742 14.0254C13.9742 9.41001 12.0308 5.52332 8.38704 2.36539C8.38704 2.36539 2.07118 8.43834 1.58534 15.7259C1.34243 22.5276 6.4437 24.9568 6.4437 24.9568L6.68662 24.4709Z" />
    <path
      d="M19.3183 18.1551C10.3304 20.8272 10.8162 29.5722 11.0591 31.5156C7.9012 34.6735 6.4437 37.5885 6.4437 37.5885L7.41537 38.0743C16.6462 22.7705 30.9784 25.6855 30.9784 25.6855V24.4709C22.2334 23.4993 16.1604 26.9001 12.0308 30.301C11.7879 27.143 13.2454 19.6126 22.4763 18.8838C33.1647 18.6409 38.2659 24.9568 38.2659 24.9568C32.6788 33.9447 26.363 35.1593 22.4763 35.6452C18.3467 36.3739 13.2454 33.4589 13.2454 33.4589L12.7596 34.4306C12.7596 34.4306 17.1321 37.3456 22.7192 36.8597C34.8651 35.4022 39.4805 24.7138 39.4805 24.7138C38.2659 22.2847 29.278 15.7259 19.3183 18.1551Z" />
  </symbol>
  <symbol id="truck" viewBox="0 0 41 41">
    <path
      d="M6.84767 16.6328L9.01168 14.9016H9.22808C9.87729 14.9016 10.3101 14.4688 10.3101 13.8196C10.3101 13.3868 10.0937 13.1704 9.87729 12.954V8.40961H8.79528V12.954C8.36248 13.1704 8.14608 13.3868 8.14608 13.8196V14.036L5.98207 15.7672L6.84767 16.6328Z" />
    <path
      d="M39.7406 28.3185V21.3936C39.7406 19.2296 38.875 18.364 38.875 18.364C38.875 18.364 36.711 15.5508 35.4126 13.8196C34.1142 12.0884 32.383 12.0884 32.383 12.0884H25.0254V11.0064C25.0254 9.49159 23.9434 8.40959 22.4285 8.40959H16.1529C14.6381 6.24558 12.0413 4.73077 9.22809 4.73077C4.46727 4.73077 0.788452 8.62599 0.788452 13.3868C0.788452 15.3344 1.43765 17.0656 2.51966 18.5804V28.1021C2.51966 29.6169 3.60166 30.6989 5.11647 30.6989H6.19848V30.9153C6.19848 33.5121 8.36249 35.6761 10.9593 35.6761C13.5561 35.6761 15.7201 33.5121 15.7201 30.9153C15.7201 30.6989 15.7201 30.6989 15.7201 30.6989H22.2121H22.4285C23.0777 30.6989 24.5926 30.6989 26.5402 30.6989V30.9153C26.5402 33.5121 28.7042 35.6761 31.301 35.6761C33.8978 35.6761 36.0618 33.5121 36.0618 30.9153C36.0618 30.6989 36.0618 30.6989 36.0618 30.6989C36.2782 30.6989 36.4946 30.6989 36.4946 30.6989C40.1734 30.9153 39.7406 28.3185 39.7406 28.3185ZM38.6586 20.7444C38.6586 20.7444 38.6586 20.9608 38.6586 21.3936H30.219C29.7862 21.3936 29.3534 20.9608 29.3534 20.528V17.0656C29.3534 16.6328 29.7862 16.2 30.219 16.2H35.8454C36.4946 16.8492 37.1438 17.7148 37.5766 18.364C38.6586 19.6624 38.6586 20.7444 38.6586 20.7444ZM9.22809 6.02918C13.3397 6.02918 16.8021 9.27519 16.8021 13.6032C16.8021 17.9312 13.3397 20.9608 9.22809 20.9608C5.11647 20.9608 1.87046 17.4984 1.87046 13.3868C1.87046 9.27519 5.11647 6.02918 9.22809 6.02918ZM10.7429 34.5941C8.79529 34.5941 7.28048 33.0793 7.28048 31.1317C7.28048 29.1841 8.79529 27.6693 10.7429 27.6693C12.6905 27.6693 14.2053 29.1841 14.2053 31.1317C14.2053 33.0793 12.6905 34.5941 10.7429 34.5941ZM15.0709 29.6169C14.4217 27.8857 12.6905 26.3709 10.7429 26.3709C8.79529 26.3709 7.06408 27.6693 6.41488 29.6169H4.90007C4.25087 29.6169 3.60166 28.9677 3.60166 28.3185V19.6624C5.11647 20.9608 7.06408 21.8264 9.22809 21.8264C13.9889 21.8264 17.6677 17.9312 17.6677 13.3868C17.6677 12.0884 17.2349 10.79 16.8021 9.708H22.4285C23.0777 9.708 23.7269 10.3572 23.7269 11.0064V28.3185C23.7269 28.9677 23.0777 29.6169 22.4285 29.6169H15.0709ZM31.0846 34.5941C29.137 34.5941 27.6222 33.0793 27.6222 31.1317C27.6222 29.1841 29.137 27.6693 31.0846 27.6693C33.0322 27.6693 34.547 29.1841 34.547 31.1317C34.547 33.0793 33.0322 34.5941 31.0846 34.5941ZM36.4946 29.8333H35.629C34.9798 27.8857 33.2486 26.5873 31.301 26.5873C29.137 26.5873 27.4058 27.8857 26.973 29.8333H24.809C25.2418 29.4005 25.4582 28.9677 25.4582 28.3185V12.954C25.4582 12.954 30.219 12.954 32.1666 12.954C34.1142 12.954 34.9798 14.2524 34.9798 14.2524C34.9798 14.2524 34.7634 14.6852 35.1962 15.118H30.219C29.137 15.118 28.4878 15.9836 28.4878 16.8492V20.3116C28.4878 21.3936 29.3534 22.0428 30.219 22.0428H38.875C38.875 23.7741 38.875 26.3709 38.875 27.6693C38.6586 30.0497 36.4946 29.8333 36.4946 29.8333Z" />
  </symbol>
  <symbol id="measure" viewBox="0 0 41 41">
    <path
      d="M12.5679 9.16711C12.5679 9.65294 13.5396 10.1388 14.9971 10.1388C16.4546 10.1388 17.4263 9.65294 17.4263 9.16711C17.4263 8.68127 16.4546 8.19543 14.9971 8.19543C13.7825 8.19543 12.5679 8.43835 12.5679 9.16711Z" />
    <path
      d="M38.8031 18.1551C38.8031 15.7259 36.8597 13.7825 34.4306 13.7825H33.4589H12.0821C12.0821 13.7825 6.25207 14.0254 3.57998 9.41001C3.82289 6.00916 6.49499 3.57998 9.89584 3.57998H19.6126C23.2563 3.57998 25.9284 6.49499 25.9284 9.89584V11.1104H27.143V10.1388C27.143 5.76624 23.7422 2.36539 19.3696 2.36539H10.1388C5.76624 2.36539 2.36539 5.76624 2.36539 10.1388V13.2967V13.7825V21.5559C2.36539 25.9284 5.76624 29.3293 10.1388 29.3293H11.8392V28.1147H9.89584C6.25207 28.1147 3.57998 25.1997 3.57998 21.7988V13.7825V13.2967V11.5963C4.30873 12.5679 6.73791 14.9971 11.8392 14.9971C19.1267 14.9971 33.216 14.9971 33.216 14.9971H34.4306C36.131 14.9971 37.3456 16.2117 37.3456 17.9121V19.3696V19.8555C37.3456 21.5559 36.131 22.7705 34.4306 22.7705H34.1876H18.8838C16.4546 22.7705 14.5113 24.7138 14.5113 27.143V33.7018C14.5113 36.131 16.4546 38.0743 18.8838 38.0743H34.4306C36.8597 38.0743 38.8031 36.131 38.8031 33.7018V27.143C38.8031 27.143 38.8031 21.313 38.8031 19.6126C38.8031 19.6126 38.8031 19.6126 38.8031 19.3696V18.1551ZM37.3456 34.1876C37.3456 35.8881 36.131 37.1027 34.4306 37.1027H18.6409C16.9405 37.1027 15.7259 35.8881 15.7259 34.1876V27.143C15.7259 25.4426 16.9405 24.228 18.6409 24.228H23.2563V28.3576H24.4709V24.228H30.058H32.2443V28.3576H33.4589V24.228H34.4306C35.6451 24.228 36.8597 23.7422 37.5885 23.0134V34.1876H37.3456Z" />
  </symbol>
  <symbol id="human" viewBox="0 0 68 69">
    <path
      d="M62.03 19.665C62.72 18.975 63.41 18.285 63.755 17.595C66.17 14.49 65.825 13.11 63.41 11.04C60.995 8.97 57.2 12.075 57.2 12.075C57.2 12.075 56.855 12.42 56.51 12.765C52.715 9.315 47.885 6.555 42.365 5.175C40.295 2.07 37.19 0 33.74 0C29.945 0 26.84 2.415 24.77 5.52C20.285 6.9 16.145 9.315 12.695 12.42C12.005 12.075 10.625 10.695 8.9 10.35C6.485 10.005 4.07 11.73 3.725 14.145C3.725 15.525 5.105 17.595 6.83 19.665C3.725 24.495 2 30.015 2 36.225C2 53.82 16.49 68.31 34.43 68.31C40.64 68.31 46.85 66.585 51.68 63.48L50.645 61.065C46.16 49.68 47.195 42.435 47.54 38.985C48.575 35.19 52.37 30.015 54.44 27.255C55.82 25.53 57.89 23.805 59.96 21.735C62.72 25.875 64.1 30.705 64.1 36.225C64.1 44.16 60.65 51.405 55.475 56.925L57.545 58.65C63.41 52.785 66.86 44.85 66.86 36.225C66.86 30.015 65.135 24.495 62.03 19.665ZM33.74 2.76C38.225 2.76 41.675 6.9 41.675 12.075C41.675 17.25 38.225 21.39 33.74 21.39C29.255 21.39 25.805 17.595 25.805 12.075C25.805 6.555 29.255 2.76 33.74 2.76ZM33.74 24.15C39.605 24.15 44.435 18.63 44.435 12.075C44.435 10.695 44.09 9.66 43.745 8.28C47.885 9.66 51.335 11.73 54.44 14.49C51.68 16.905 47.54 20.01 45.47 21.39C42.365 23.805 37.19 26.22 33.05 26.22C28.91 26.22 26.84 24.495 23.735 23.115C20.975 21.735 16.49 16.56 14.42 14.49C17.18 12.075 20.285 10.35 23.39 8.97C23.39 10.005 23.045 11.04 23.045 12.075C23.045 18.975 27.875 24.15 33.74 24.15ZM4.76 36.225C4.76 31.05 6.14 26.22 8.555 21.735C9.245 22.425 9.59 22.77 9.59 22.77C9.59 22.77 18.215 32.775 19.94 35.19C21.665 37.605 19.595 39.33 18.215 45.54C17.18 50.37 17.18 56.925 17.18 60.03C9.59 54.51 4.76 45.885 4.76 36.225ZM58.235 19.665C56.855 21.045 52.025 25.185 47.885 31.74C43.745 38.295 44.435 43.47 44.78 47.265C45.125 51.06 46.16 54.51 46.505 55.89C46.85 56.925 48.23 60.72 48.575 61.755C44.435 63.825 39.605 65.205 34.775 65.205C29.255 65.205 24.425 63.825 19.94 61.41C19.94 49.68 20.63 47.955 20.975 46.23C20.975 44.505 22.01 41.055 23.045 38.295C23.735 35.88 22.7 33.81 21.665 32.775C20.63 31.74 10.625 19.665 8.9 17.25C6.83 14.835 6.485 13.8 8.21 13.11C9.935 12.075 14.42 17.595 16.49 20.01C18.215 22.425 26.15 28.98 33.395 28.635C40.64 28.29 45.815 24.495 47.885 23.115C49.61 21.735 58.58 14.49 59.96 13.455C61.34 12.42 63.065 13.455 62.72 14.49C62.375 15.525 59.615 18.285 58.235 19.665Z" />
  </symbol>
  <symbol id="smile" viewBox="0 0 68 68">
    <path
      d="M34 2C16.4314 2 2 16.4314 2 34C2 51.5686 16.4314 66 34 66C51.5686 66 66 51.5686 66 34C66 16.4314 51.5686 2 34 2ZM34 63.4902C17.6863 63.4902 4.5098 50.3137 4.5098 34C4.5098 17.6863 17.6863 4.5098 34 4.5098C50.3137 4.5098 63.4902 17.6863 63.4902 34C63.4902 50.3137 50.3137 63.4902 34 63.4902Z" />
    <path
      d="M34 50.6275C23.0196 50.6275 16.4314 40.902 16.4314 40.902L14.2353 42.4706C23.0196 53.7647 34 53.451 34 53.451C34 53.451 44.9804 54.0785 53.7647 42.4706L51.5686 40.902C51.5686 40.902 44.9804 50.6275 34 50.6275Z" />
    <path
      d="M23.3333 37.451C30.8627 34 32.1176 29.6078 32.1176 27.4118C32.1176 24.902 30.549 22.0784 27.7255 22.0784C24.5882 22.0784 23.3333 23.6471 23.3333 23.6471C23.3333 23.6471 22.0784 22.0784 18.9412 22.0784C16.1176 22.0784 14.549 25.2157 14.549 27.4118C14.549 29.6078 15.8039 34 23.3333 37.451ZM23.3333 26.7843C24.902 24.2745 29.2941 23.9608 29.6078 27.098C29.6078 31.4902 23.3333 34.6275 23.3333 34.6275C23.3333 34.6275 17.0588 31.4902 17.0588 27.098C17.3725 23.9608 21.7647 24.2745 23.3333 26.7843Z" />
    <path
      d="M44.6667 37.451C52.1961 34 53.451 29.6078 53.451 27.7255C53.451 25.2157 51.8824 22.3922 49.0588 22.3922C45.9216 22.3922 44.6667 23.9608 44.6667 23.9608C44.6667 23.9608 43.4118 22.3922 40.2745 22.3922C37.451 22.3922 35.8824 25.5294 35.8824 27.7255C35.8824 29.6078 37.1373 34 44.6667 37.451ZM44.6667 26.7843C46.2353 24.2745 50.6274 23.9608 50.9412 27.098C50.9412 31.4902 44.6667 34.6274 44.6667 34.6274C44.6667 34.6274 38.3922 31.4902 38.3922 27.098C38.7059 23.9608 43.098 24.2745 44.6667 26.7843Z" />
  </symbol>
  <symbol id="muscle" viewBox="0 0 68 68">
    <path
      d="M51.9372 15.4497C45.9103 15.4497 38.1614 19.7547 38.4484 28.6515C38.4484 28.6515 26.6816 24.9206 23.2377 37.2614C23.2377 37.2614 21.2287 32.9565 18.6457 30.9475C15.7758 28.9385 12.3318 23.7726 12.0448 21.1896C12.3318 19.7547 12.6188 19.7547 13.1928 19.4677C13.4798 19.4677 13.4798 21.7636 16.0628 22.0506C18.3587 21.7636 18.9327 21.1896 19.7937 20.0417L22.3767 17.1717C22.3767 17.1717 24.9596 13.7278 22.6637 12.0058C20.6547 9.99681 16.9238 6.26587 12.3318 7.12686C9.74888 7.70085 7.73991 9.70982 7.73991 9.70982L4.29596 12.8668C4.29596 12.8668 2 15.1627 2 19.7547C2 23.7726 2.86099 30.3735 2.86099 30.3735C2.86099 30.3735 3.72197 35.5394 4.00897 37.2614C4.29596 38.9834 6.59193 49.0282 12.0448 54.4811C15.4888 58.4991 17.4978 60.221 19.2197 60.508C22.0897 60.508 23.5247 58.7861 25.8206 58.7861C28.1166 58.7861 30.4126 60.508 35.2915 60.508C40.1704 60.508 51.0762 57.6381 55.6682 43.5753C59.9731 41.8533 66 38.6964 66 29.2255C66 19.7547 57.6771 15.4497 51.9372 15.4497ZM53.9462 41.8533C50.7892 54.4811 40.7444 57.9251 35.8655 58.4991C31.2735 58.4991 28.6906 56.7771 25.2466 56.7771C23.2377 56.7771 20.3677 58.4991 19.5067 58.4991C18.6457 58.4991 16.3498 56.4901 13.4798 53.3331C10.6099 50.1762 9.46188 47.3062 8.3139 45.0103C7.16592 42.7143 5.15695 33.5304 5.15695 33.5304C5.15695 33.5304 4.29596 24.3466 4.29596 20.3287C4.29596 16.5977 6.01794 14.3017 6.01794 14.3017C6.01794 14.3017 8.3139 12.2928 10.6099 10.2838C13.1928 8.27484 16.3498 9.70982 16.3498 9.70982C16.3498 9.70982 19.5067 11.7188 20.6547 12.8668C22.0897 14.0148 20.6547 15.1627 20.6547 15.1627C20.6547 15.1627 17.4978 19.1807 16.3498 19.4677C14.9148 19.7547 14.6278 16.3107 14.6278 16.3107C13.1928 16.8847 10.8969 17.4587 10.0359 20.0417C9.17489 23.1986 13.7668 29.7995 17.2108 32.9565C20.3677 36.1134 22.3767 41.2793 22.3767 41.2793L24.9596 40.4183C24.9596 40.4183 24.6726 34.3914 29.8386 31.2345C35.5785 28.0775 40.7444 32.3825 40.7444 32.3825C39.0224 18.0327 51.6502 17.7457 52.5112 17.7457C53.3722 17.7457 63.417 18.6067 64.278 28.6515C63.704 40.1313 53.9462 41.8533 53.9462 41.8533Z" />
  </symbol>
  <symbol id="check" viewBox="0 0 30 24" width="30" height="24">
    <path fill="#497870"
      d="M28.4138 1.65506C26.4828 -0.551832 23.1724 -0.551832 21.2414 1.3792L11.0345 11.5861L8.82758 9.3792C6.89655 7.44817 3.5862 7.44817 1.65517 9.3792H1.37931C-0.551726 11.3102 -0.551726 14.6206 1.37931 16.5516L7.44827 22.6206C8.55172 23.724 9.93103 23.9999 11.0345 23.9999C12.4138 23.9999 13.5172 23.4482 14.6207 22.6206L28.4138 8.82748C30.3448 6.89644 30.3448 3.5861 28.4138 1.65506Z" />
  </symbol>

  <symbol id="insta" viewBox="0 0 36.7 36.7">
    <path class="st0" d="M32.3,0H4.4C2,0,0,1.9,0,4.3v28.1c0,2.4,2,4.3,4.4,4.3h27.9c2.4,0,4.4-1.9,4.4-4.3V4.3C36.7,1.9,34.7,0,32.3,0
      M26.4,5.7c0-0.6,0.5-1.1,1.1-1.1H31c0.6,0,1.1,0.5,1.1,1.1v3.4c0,0.6-0.5,1.1-1.1,1.1h-3.4c-0.6,0-1.1-0.5-1.1-1.1L26.4,5.7
      L26.4,5.7z M18.4,11.3c3.9,0,7.1,3.1,7.1,7s-3.2,7-7.1,7s-7.1-3.1-7.1-7C11.3,14.5,14.5,11.3,18.4,11.3 M33.2,32.1
      c0,0.6-0.5,1.1-1.1,1.1H4.6c-0.6,0-1.1-0.5-1.1-1.1V14.9H8c-0.6,0.9-0.8,2.5-0.8,3.5c0,6.1,5,11.1,11.2,11.1s11.2-5,11.2-11.1
      c0-1-0.1-2.6-0.9-3.5h4.6L33.2,32.1L33.2,32.1z" />
  </symbol>

  <symbol id="tw" viewBox="0 0 36.7 36.7">
    <path class="st0" d="M35.7,3.7c-1.5,0.9-3.1,1.5-4.8,1.9c-1.4-1.5-3.3-2.4-5.5-2.4c-4.2,0-7.5,3.5-7.5,7.7c0,0.6,0.1,1.2,0.2,1.8
      C11.8,12.3,6.3,9.2,2.6,4.5c-0.6,1.1-1,2.5-1,3.9c0,2.7,1.3,5,3.4,6.4c-1.2,0-2.4-0.4-3.4-1V14c0,3.7,2.6,6.9,6,7.6
      c-0.6,0.2-1.3,0.3-2,0.3c-0.5,0-1,0-1.4-0.1c1,3.1,3.7,5.3,7,5.4c-2.6,2.1-5.8,3.3-9.4,3.3c-0.6,0-1.2,0-1.8-0.1
      c3.3,2.2,7.3,3.5,11.5,3.5c13.9,0,21.4-11.8,21.4-22c0-0.3,0-0.7,0-1c1.5-1.1,2.8-2.4,3.8-4c-1.3,0.6-2.8,1-4.3,1.2
      C33.9,7,35.1,5.5,35.7,3.7" />
  </symbol>

  <symbol id="vk" viewBox="0 0 36.7 36.7">
    <path class="st0" d="M36.5,26.8c0-0.1-0.1-0.2-0.1-0.2c-0.6-1.1-1.9-2.6-3.7-4.2l0,0l0,0l0,0h0c-0.8-0.8-1.3-1.3-1.5-1.6
      c-0.4-0.5-0.5-1-0.3-1.5c0.2-0.4,0.7-1.2,1.7-2.5c0.5-0.7,0.9-1.2,1.2-1.6c2.2-2.9,3.2-4.8,2.9-5.6l-0.1-0.2C36.5,9.1,36.3,9,36,8.9
      c-0.3-0.1-0.7-0.1-1.2,0l-5.5,0c-0.1,0-0.2,0-0.4,0c-0.2,0-0.2,0.1-0.2,0.1l-0.1,0l-0.1,0.1c-0.1,0-0.1,0.1-0.2,0.2
      c-0.1,0.1-0.1,0.2-0.2,0.3c-0.6,1.5-1.3,3-2,4.3c-0.5,0.8-0.9,1.5-1.3,2.1c-0.4,0.6-0.7,1-1,1.3c-0.3,0.3-0.5,0.5-0.7,0.7
      c-0.2,0.2-0.4,0.2-0.5,0.2c-0.1,0-0.2-0.1-0.3-0.1c-0.2-0.1-0.3-0.3-0.4-0.5c-0.1-0.2-0.2-0.4-0.2-0.7c0-0.3-0.1-0.6-0.1-0.8
      c0-0.2,0-0.5,0-0.9c0-0.4,0-0.7,0-0.8c0-0.5,0-1,0-1.6c0-0.6,0-1,0-1.3c0-0.3,0-0.7,0-1.1c0-0.4,0-0.7-0.1-0.9
      c0-0.2-0.1-0.4-0.2-0.6c-0.1-0.2-0.2-0.4-0.4-0.5c-0.2-0.1-0.4-0.2-0.6-0.3c-0.7-0.2-1.5-0.2-2.6-0.2c-2.4,0-3.9,0.1-4.6,0.5
      c-0.3,0.1-0.5,0.3-0.7,0.6c-0.2,0.3-0.3,0.4-0.1,0.5c0.8,0.1,1.3,0.4,1.6,0.8l0.1,0.2c0.1,0.2,0.2,0.5,0.3,0.9
      c0.1,0.4,0.1,0.9,0.2,1.4c0.1,0.9,0.1,1.7,0,2.4c-0.1,0.7-0.1,1.2-0.2,1.5c-0.1,0.4-0.1,0.7-0.3,0.9c-0.1,0.2-0.2,0.4-0.2,0.4
      c0,0.1-0.1,0.1-0.1,0.1c-0.2,0.1-0.3,0.1-0.5,0.1c-0.2,0-0.4-0.1-0.6-0.3c-0.3-0.2-0.5-0.4-0.8-0.7c-0.3-0.3-0.6-0.7-0.9-1.3
      c-0.3-0.6-0.7-1.2-1.1-2l-0.3-0.6c-0.2-0.4-0.5-0.9-0.8-1.6c-0.3-0.7-0.6-1.3-0.9-2C7.7,9.5,7.5,9.3,7.3,9.1L7.2,9.1
      C7.1,9,7,9,6.9,8.9C6.8,8.9,6.6,8.8,6.5,8.8l-5.2,0C0.7,8.8,0.3,9,0.1,9.2L0.1,9.3C0,9.4,0,9.5,0,9.6c0,0.1,0,0.3,0.1,0.5
      c0.8,1.8,1.6,3.5,2.5,5.2c0.9,1.7,1.7,3,2.3,4c0.7,1,1.3,2,2,2.9c0.7,0.9,1.1,1.5,1.4,1.7c0.2,0.3,0.4,0.4,0.5,0.6L9.3,25
      c0.3,0.3,0.8,0.7,1.3,1.1c0.6,0.4,1.2,0.8,2,1.3c0.7,0.4,1.6,0.8,2.5,1c1,0.3,1.9,0.4,2.8,0.3h2.2c0.4,0,0.8-0.2,1-0.4l0.1-0.1
      c0.1-0.1,0.1-0.2,0.1-0.4c0-0.2,0.1-0.3,0.1-0.5c0-0.5,0-1,0.1-1.5c0.1-0.4,0.2-0.8,0.3-1c0.1-0.2,0.3-0.4,0.4-0.6
      c0.2-0.2,0.3-0.2,0.3-0.3c0.1,0,0.1-0.1,0.2-0.1c0.3-0.1,0.7,0,1.1,0.3c0.4,0.3,0.8,0.7,1.2,1.1c0.4,0.4,0.8,0.9,1.3,1.5
      c0.5,0.5,1,1,1.3,1.2l0.4,0.2c0.3,0.2,0.6,0.3,1,0.4c0.4,0.1,0.8,0.2,1.1,0.1l4.9-0.1c0.5,0,0.9-0.1,1.1-0.2
      c0.3-0.2,0.4-0.3,0.5-0.5c0.1-0.2,0.1-0.4,0-0.7C36.6,27.1,36.6,26.9,36.5,26.8L36.5,26.8z M36.5,26.8" />
  </symbol>

  <symbol id="fb" viewBox="0 0 36.7 36.7">
    <path class="st0" d="M36.7,34.7c0,1.1-0.9,2-2,2h-9.4V22.5h4.8l0.7-5.5h-5.5v-3.5c0-1.6,0.4-2.7,2.7-2.7l2.9,0v-5
      c-0.5-0.1-2.2-0.2-4.3-0.2c-4.2,0-7.1,2.6-7.1,7.3V17h-4.8v5.5h4.8v14.2H2c-1.1,0-2-0.9-2-2V2c0-1.1,0.9-2,2-2h32.7c1.1,0,2,0.9,2,2
      V34.7z" />
  </symbol>

  <symbol id="left-arrow" viewBox="0 0 24 40" fill="none">
    <path d="M19 34L6.91422 21.9142C6.13317 21.1332 6.13317 19.8668 6.91421 19.0858L19 7" stroke-width="2"
      stroke-linecap="round" />
  </symbol>

  <symbol id="right-arrow" viewBox="0 0 24 40" fill="none">
    <path d="M5 6L17.0858 18.0858C17.8668 18.8668 17.8668 20.1332 17.0858 20.9142L5 33" stroke-width="2"
      stroke-linecap="round" />
  </symbol>

  <symbol id="candy" viewBox="0 0 46 46">
    <path
      d="M44.6903 7.1641L38.8069 1.27893C37.9858 0.457505 36.8943 0 35.7301 0C34.5659 0 33.4641 0.457505 32.6429 1.27893C31.7802 2.14195 31.3436 3.29611 31.3644 4.46067C30.2002 4.43987 29.0464 4.87658 28.1837 5.7396C27.3209 6.60262 26.8843 7.75678 26.9051 8.92134C25.7409 8.89015 24.5871 9.33725 23.7244 10.2003C22.8616 11.0633 22.425 12.2175 22.4458 13.382C21.2816 13.3612 20.1278 13.7979 19.2651 14.6609L4.71265 29.2179L0.315736 33.6162C0.191001 33.7306 0.0974494 33.8865 0.0454764 34.0529C0.0454764 34.0737 0.0350818 34.0841 0.0350818 34.1049C-0.0272858 34.344 -0.00649662 34.5832 0.0974494 34.7911C0.118239 34.8431 0.149422 34.8847 0.170212 34.9367C0.305341 35.1343 0.502839 35.2902 0.752309 35.363L4.31766 36.382L5.33633 39.9485C5.42988 40.2916 5.70014 40.5619 6.05355 40.6659L9.6189 41.6849L10.6376 45.2514C10.7103 45.5009 10.8663 45.6985 11.0741 45.8336C11.1157 45.8648 11.1573 45.8856 11.2093 45.9064C11.3444 45.9688 11.4899 46 11.6355 46C11.729 46 11.8226 45.9896 11.9265 45.9584C12.1136 45.9064 12.2695 45.8128 12.3943 45.6777L16.7912 41.2794L23.1007 34.9679C23.2254 35.0927 23.371 35.1759 23.5373 35.2278C23.9011 35.3318 24.2961 35.2382 24.5663 34.9679L32.0816 27.4503C32.487 27.0448 32.487 26.3897 32.0816 25.9842L31.9881 25.8906C32.4247 25.1731 32.6325 24.3517 32.6222 23.5303C33.7863 23.5511 34.9401 23.1144 35.8029 22.2514C36.6656 21.3883 37.1022 20.2342 37.0814 19.0696C38.2456 19.1008 39.3994 18.6537 40.2622 17.7907C41.1249 16.9277 41.5615 15.7735 41.5407 14.609C42.7049 14.6297 43.8587 14.193 44.7215 13.33C45.5426 12.5086 46 11.4064 46 10.2419C45.9688 9.0877 45.5218 7.98553 44.6903 7.1641ZM12.1344 42.9638L11.4484 40.5411C11.3548 40.198 11.0845 39.9277 10.7311 39.8237L7.16578 38.8151L6.14711 35.2486C6.05356 34.9055 5.7833 34.6352 5.42988 34.5312L3.00794 33.8449L5.42988 31.4222L14.5459 40.5411L12.1344 42.9638ZM24.4208 32.1501L21.9781 20.8476C21.8533 20.2862 21.3024 19.9326 20.7411 20.047C20.1798 20.1718 19.8264 20.7229 19.9407 21.2844L22.4043 32.6908L16.022 39.075L6.90591 29.9561L19.9927 16.8653L29.8468 26.7224L24.4208 32.1501ZM43.2246 11.8639C42.5282 12.5606 41.468 12.7373 40.5948 12.2902C40.1998 12.0927 39.7113 12.1655 39.3994 12.4878C39.0876 12.8101 39.0044 13.2884 39.2019 13.6835C39.6385 14.5674 39.4618 15.6279 38.7758 16.3142C38.0897 17.0005 37.0191 17.1876 36.1459 16.7405C35.7509 16.5429 35.2624 16.6157 34.9505 16.9381C34.6387 17.25 34.5555 17.7387 34.753 18.1338C35.1896 19.0176 35.0129 20.0782 34.3269 20.7645C33.6304 21.4611 32.5702 21.6379 31.697 21.1908C31.302 20.9932 30.8135 21.066 30.5017 21.3883C30.1898 21.7003 30.1067 22.189 30.3042 22.5841C30.5744 23.1352 30.616 23.7486 30.4289 24.3101L21.6662 15.5448C22.2276 15.368 22.8408 15.3992 23.3917 15.6695C23.7867 15.8671 24.2753 15.7943 24.5871 15.472C24.899 15.1496 24.9821 14.6713 24.7846 14.2762C24.348 13.3924 24.5248 12.3318 25.2108 11.6456C25.8968 10.9593 26.9675 10.7722 27.8406 11.2193C28.2356 11.4168 28.7242 11.344 29.036 11.0217C29.3479 10.7098 29.431 10.2211 29.2335 9.82595C28.7969 8.94213 28.9736 7.88155 29.6597 7.1953C30.3561 6.49864 31.4164 6.32188 32.2895 6.76899C32.6845 6.96655 33.1731 6.89376 33.4849 6.57143C33.7967 6.25949 33.8799 5.7708 33.6824 5.37568C33.2458 4.49186 33.4225 3.43128 34.1086 2.74503C34.5452 2.30832 35.1169 2.07957 35.7301 2.07957C36.3434 2.07957 36.9151 2.31872 37.3517 2.74503L43.2246 8.6302C43.6612 9.06691 43.8899 9.63879 43.8899 10.2523C43.8899 10.8553 43.6508 11.4376 43.2246 11.8639Z" />
  </symbol>

  <symbol id="almond" viewBox="0 0 32 32">
    <path
      d="M15.268 23.194C15.0196 23.119 14.7571 23.2597 14.6868 23.5081C14.0634 25.5986 12.0995 27.061 9.91524 27.061C7.16855 27.0563 4.93744 24.8252 4.93744 22.0832C4.93744 18.4037 6.23111 14.818 8.58408 11.9869L9.37621 11.0354C9.50746 10.8761 9.70432 10.7823 9.91056 10.7823C10.1168 10.7823 10.3137 10.8761 10.4449 11.0354L11.237 11.9869C13.0322 14.1477 14.2228 16.7538 14.6774 19.524C14.7196 19.7771 14.9587 19.9505 15.2165 19.9083C15.4696 19.8661 15.643 19.6271 15.6008 19.3693C15.118 16.4351 13.8572 13.6743 11.9589 11.387L11.1714 10.4308C10.8621 10.0558 10.4027 9.84021 9.91524 9.84021C9.42777 9.84021 8.96843 10.0558 8.65907 10.4308L7.86694 11.3823C5.37335 14.3821 4 18.1834 4 22.0832C4 25.3455 6.65295 27.9984 9.91524 27.9984C11.2136 27.9984 12.4463 27.5859 13.4822 26.8032C14.4806 26.0485 15.2305 24.9705 15.5868 23.7799C15.6571 23.5268 15.5164 23.2643 15.268 23.194Z" />
    <path
      d="M9.69025 15.8539C9.46058 15.9758 9.37621 16.2617 9.49808 16.4867C10.2715 17.9257 10.7449 19.5474 10.8714 21.1739C10.8902 21.4176 11.0964 21.6051 11.3401 21.6051C11.3542 21.6051 11.3636 21.6051 11.3776 21.6051C11.6354 21.5864 11.8276 21.3614 11.8089 21.1036C11.6729 19.3224 11.1714 17.621 10.3277 16.0461C10.2058 15.8164 9.91992 15.732 9.69025 15.8539Z" />
    <path
      d="M9.91524 24.0144C10.173 24.0144 10.384 23.8035 10.384 23.5457C10.384 23.2879 10.173 23.077 9.91524 23.077C9.36684 23.077 8.91687 22.6317 8.91687 22.0786C8.91687 21.4927 8.95906 20.9021 9.04811 20.3256C9.08561 20.0678 8.91218 19.8287 8.65439 19.7912C8.39659 19.7537 8.15754 19.9272 8.12005 20.1849C8.0263 20.8083 7.97943 21.4458 7.97943 22.0786C7.97943 23.1473 8.84656 24.0144 9.91524 24.0144Z" />
    <path
      d="M9.91525 26.0064C12.0807 26.0064 13.8384 24.244 13.8384 22.0832C13.8384 21.8254 13.6275 21.6145 13.3697 21.6145C13.1119 21.6145 12.901 21.8254 12.901 22.0832C12.901 23.7284 11.5605 25.069 9.91525 25.069C9.65746 25.069 9.44653 25.2799 9.44653 25.5377C9.44653 25.7955 9.65746 26.0064 9.91525 26.0064Z" />
    <path
      d="M12.9713 19.2053C13.0088 19.2053 13.0463 19.2006 13.0838 19.1912C13.3369 19.1303 13.4916 18.8772 13.4306 18.6241C13.1072 17.2835 12.5963 15.9946 11.9167 14.7946C11.7901 14.5697 11.5042 14.49 11.2792 14.6165C11.0542 14.7431 10.9745 15.029 11.1011 15.254C11.7385 16.3789 12.2166 17.5835 12.5213 18.8397C12.5682 19.06 12.7604 19.2053 12.9713 19.2053Z" />
    <path
      d="M8.11068 15.4039C7.87632 15.2914 7.59977 15.3851 7.48259 15.6195C6.50766 17.6256 5.99207 19.8567 5.99207 22.0785C5.99207 22.3363 6.20299 22.5472 6.46079 22.5472C6.71858 22.5472 6.9295 22.3363 6.9295 22.0785C6.9295 19.9973 7.41229 17.9069 8.32629 16.032C8.43878 15.7976 8.34035 15.5211 8.11068 15.4039Z" />
    <path
      d="M27.9938 17.2601L27.8813 16.0273C27.525 12.1463 25.8095 8.49033 23.0534 5.72958C20.7473 3.42347 16.9976 3.42347 14.6915 5.72958C12.3854 8.03568 12.3854 11.7854 14.6915 14.0915C17.4476 16.8476 21.1036 18.5631 24.9893 18.924L26.222 19.0365C26.2736 19.0412 26.3251 19.0412 26.372 19.0412C26.8032 19.0412 27.2157 18.8725 27.525 18.5631C27.8625 18.221 28.0359 17.7429 27.9938 17.2601ZM26.8548 17.9022C26.7095 18.0475 26.5032 18.1225 26.297 18.1038L25.0643 17.9913C21.3989 17.6538 17.9491 16.032 15.3477 13.4306C13.4072 11.4901 13.4072 8.33097 15.3477 6.39047C16.2898 5.44834 17.5366 4.93275 18.8678 4.93275C20.1989 4.93275 21.4457 5.44834 22.3879 6.39047C24.9893 8.99187 26.611 12.4463 26.9485 16.107L27.061 17.3398C27.0751 17.5507 27.0048 17.7569 26.8548 17.9022Z" />
    <path
      d="M18.8631 8.91686C19.1303 8.91686 19.3787 9.01998 19.5662 9.20746C19.9787 9.61994 20.3677 10.0699 20.7146 10.5386C20.8083 10.6652 20.9489 10.7308 21.0942 10.7308C21.1927 10.7308 21.2864 10.7027 21.3708 10.6371C21.577 10.4824 21.6239 10.1918 21.4692 9.98085C21.0942 9.46995 20.6771 8.98717 20.2318 8.54188C19.8662 8.17628 19.3834 7.97473 18.8631 7.97473C18.3475 7.97473 17.8601 8.17628 17.4945 8.54188C17.3117 8.72468 17.3117 9.01998 17.4945 9.20278C17.6773 9.38558 17.9726 9.38558 18.1554 9.20278C18.3475 9.01998 18.6006 8.91686 18.8631 8.91686Z" />
    <path
      d="M23.1144 13.576C21.5489 13.1026 20.0677 12.2917 18.8256 11.2324C18.6287 11.0637 18.3334 11.0871 18.1647 11.2839C17.996 11.4808 18.0194 11.7761 18.2163 11.9448C19.5709 13.1073 21.127 13.9557 22.8425 14.4759C22.8894 14.49 22.9316 14.4947 22.9785 14.4947C23.18 14.4947 23.3675 14.3634 23.4284 14.1619C23.4987 13.9088 23.3581 13.651 23.1144 13.576Z" />
    <path
      d="M21.6379 7.13576C21.4551 6.95296 21.1598 6.95296 20.977 7.13576C20.7942 7.31856 20.7942 7.61385 20.977 7.79665C22.4488 9.26843 23.5831 11.0871 24.2674 13.0604C24.333 13.2525 24.5158 13.3744 24.7127 13.3744C24.7643 13.3744 24.8158 13.365 24.8674 13.3463C25.1111 13.2619 25.2424 12.9948 25.158 12.751C24.4268 10.6512 23.2128 8.70597 21.6379 7.13576Z" />
    <path
      d="M22.8566 15.5726C21.6098 15.2305 20.4193 14.7149 19.3178 14.0399C19.0975 13.904 18.8069 13.9743 18.6756 14.1946C18.5397 14.4149 18.61 14.7055 18.8303 14.8368C20.0068 15.5586 21.2817 16.107 22.6082 16.4726C22.6504 16.482 22.6925 16.4913 22.7347 16.4913C22.941 16.4913 23.1285 16.3554 23.1847 16.1492C23.2503 15.8961 23.105 15.6383 22.8566 15.5726Z" />
    <path
      d="M16.7539 7.13576C16.5711 6.95296 16.2758 6.95296 16.093 7.13576C14.565 8.66378 14.565 11.1574 16.093 12.6854C16.1867 12.7791 16.3039 12.8213 16.4258 12.8213C16.5476 12.8213 16.6648 12.7745 16.7586 12.6854C16.9414 12.5026 16.9414 12.2073 16.7586 12.0245C15.5961 10.8621 15.5961 8.96376 16.7586 7.80134C16.9367 7.61854 16.9367 7.31856 16.7539 7.13576Z" />
    <path
      d="M15.3524 21.0754C15.2305 21.0754 15.1087 21.127 15.0196 21.2114C14.9305 21.3004 14.8837 21.4176 14.8837 21.5442C14.8837 21.666 14.9352 21.7879 15.0196 21.877C15.1087 21.966 15.2258 22.0129 15.3524 22.0129C15.4789 22.0129 15.5961 21.9613 15.6852 21.877C15.7742 21.7879 15.8211 21.6707 15.8211 21.5442C15.8211 21.4176 15.7695 21.3004 15.6852 21.2114C15.5961 21.1223 15.4743 21.0754 15.3524 21.0754Z" />
  </symbol>
  <symbol id="apitherapy" viewBox="0 0 32 32">
    <path
      d="M4.18761 25.5505C7.66777 27.7268 7.43795 27.6142 7.60211 27.6142C7.76627 27.6142 7.5599 27.708 10.8056 25.6865C14.0559 27.7174 13.8495 27.6142 14.009 27.6142C14.1685 27.6142 14.009 27.6846 16.6261 26.0477C16.8138 25.9304 16.87 25.6818 16.7528 25.4942C16.6355 25.3066 16.3869 25.2503 16.1993 25.3676L14.0043 26.7418L11.2042 24.9924V22.2345L12.6676 21.3199C12.8552 21.2027 12.9115 20.9541 12.7942 20.7665C12.677 20.5789 12.4284 20.5226 12.2408 20.6398L10.8056 21.5404L8.00547 19.7909V17.033L10.8056 15.2836C12.3674 16.2591 12.2642 16.2122 12.3768 16.231C12.5644 16.2638 12.752 16.1653 12.8224 15.9871C12.8927 15.8089 12.827 15.6072 12.6676 15.504L11.2042 14.5894V11.8315L14.0043 10.0821L16.8044 11.8315V12.4084C16.8044 12.6289 16.9826 12.8071 17.203 12.8071C17.4235 12.8071 17.6017 12.6289 17.6017 12.4084V11.8315L20.4018 10.0821L23.2019 11.8315V14.8098C23.2019 15.0303 23.3801 15.2085 23.6005 15.2085C23.821 15.2085 23.9992 15.0303 23.9992 14.8098V11.6064C23.9992 11.4704 23.9289 11.3391 23.8116 11.2687L20.7958 9.38323V6.40023C20.7958 6.26422 20.7254 6.13289 20.6082 6.06254L17.4188 4.0598C17.2875 3.98007 17.1233 3.98007 16.9967 4.0598L14.009 5.92652L11.0166 4.0598C10.8853 3.98007 10.7211 3.98007 10.5945 4.0598L7.39105 6.06254C7.27379 6.13758 7.20344 6.26422 7.20344 6.40023V9.37854L4.18761 11.264C4.07035 11.3391 4 11.4657 4 11.6017V14.8052C4 14.9412 4.07035 15.0725 4.18761 15.1429L7.20344 17.0283V19.7862L4.18761 21.6717C4.07035 21.7467 4 21.8734 4 22.0094V25.2128C4 25.3488 4.07035 25.4755 4.18761 25.5505ZM17.2077 4.87121L20.0078 6.62068V9.37854L17.2077 11.128L14.4077 9.37854V6.62068L17.2077 4.87121ZM10.8056 4.87121L13.6056 6.62068V9.37854L10.8056 11.128L8.00547 9.37854V6.62068L10.8056 4.87121ZM4.80203 11.8269L7.60211 10.0774L10.4022 11.8269V14.5847L7.60211 16.3342L4.80203 14.5847V11.8269ZM4.80203 22.2298L7.60211 20.4804L10.4022 22.2298V24.9877L7.60211 26.7372L4.80203 24.9877V22.2298Z" />
    <path
      d="M22.4092 16.0105V15.6072C22.4092 14.9083 22.0997 14.2423 21.5697 13.7827L21.9684 12.9806C22.0668 12.7836 21.9824 12.5444 21.7854 12.4459C21.5884 12.3474 21.3492 12.4272 21.2507 12.6242L20.8802 13.3699C20.3221 13.1495 19.6983 13.1495 19.1354 13.3699L18.7649 12.6242C18.7039 12.4928 18.5726 12.4084 18.4319 12.399C18.2865 12.3896 18.1505 12.46 18.0708 12.5773C17.991 12.6992 17.9816 12.8493 18.0473 12.9806L18.446 13.7827C17.9113 14.2376 17.6017 14.9036 17.6017 15.6072V16.0105C17.2359 16.0058 16.8419 16.0058 16.401 16.0058C14.2763 16.0058 11.9969 16.972 11.9969 18.4072C11.9969 20.1332 15.2472 21.0385 16.8654 20.7664C16.8278 21.0854 16.7997 21.5216 16.7997 21.8124C16.7997 24.6124 18.0004 26.8497 19.5998 27.1733V27.6189C19.5998 27.8393 19.778 28.0176 19.9985 28.0176C20.2189 28.0176 20.3971 27.8393 20.3971 27.6189V27.1686C21.9965 26.845 23.1972 24.6077 23.1972 21.8077C23.1972 21.5216 23.1691 21.0807 23.1315 20.7664C24.7684 21.0385 28 20.1239 28 18.4072C28 16.972 25.7252 16.0058 23.5959 16.0058C23.1925 16.0058 22.7845 16.0058 22.4092 16.0105ZM18.4085 15.6072C18.4085 14.7207 19.1261 14.0078 20.0078 14.0078C20.8943 14.0078 21.6072 14.7254 21.6072 15.6072V16.0293C21.0678 16.0199 20.5238 16.0996 20.0078 16.2591C19.4919 16.0903 18.9478 16.0152 18.4038 16.0293V15.6072H18.4085ZM20.0125 18.1587C20.2001 18.5339 20.43 18.8856 20.702 19.2046H19.3184C19.5857 18.8856 19.8202 18.5339 20.0125 18.1587ZM12.8036 18.4072C12.8036 17.6849 14.464 16.8079 16.4057 16.8079C17.2078 16.8079 19.0979 16.7938 19.5951 16.9533C19.4591 17.9148 18.0614 20.0113 16.4057 20.0113C14.4686 20.0066 12.8036 19.1295 12.8036 18.4072ZM18.4929 20.0066H21.5181C21.762 20.1989 22.0246 20.3631 22.3014 20.4991C22.3154 20.6023 22.3295 20.7055 22.3436 20.8086H19.6092C19.3887 20.8086 19.2105 20.9869 19.2105 21.2073C19.2105 21.4278 19.3887 21.606 19.6092 21.606H22.3999C22.4186 21.8733 22.4139 22.1407 22.3858 22.408H17.6299C17.6017 22.1407 17.597 21.8733 17.6158 21.606H18.0051C18.2255 21.606 18.4038 21.4278 18.4038 21.2073C18.4038 20.9869 18.2255 20.8086 18.0051 20.8086H17.6721C17.6862 20.7008 17.7002 20.5976 17.7143 20.4897C17.9957 20.3584 18.2537 20.1989 18.4929 20.0066ZM18.2068 24.8094H20.0078C20.2283 24.8094 20.4065 24.6312 20.4065 24.4108C20.4065 24.1903 20.2283 24.0121 20.0078 24.0121H17.9113C17.8362 23.7494 17.7753 23.4821 17.7284 23.21H22.292C22.2451 23.4821 22.1841 23.7494 22.1091 24.0121H21.6119C21.3915 24.0121 21.2132 24.1903 21.2132 24.4108C21.2132 24.6312 21.3915 24.8094 21.6119 24.8094H21.8136C20.838 26.9435 19.1823 26.9435 18.2068 24.8094ZM27.2121 18.4072C27.2121 19.4016 24.2384 20.4053 22.8126 19.8518C21.6213 19.289 20.7442 18.229 20.4206 16.9533C20.9975 16.7797 22.7282 16.8079 23.6099 16.8032C25.5517 16.8079 27.2121 17.6849 27.2121 18.4072Z" />
  </symbol>
  <symbol id="beans" viewBox="0 0 32 32">
    <path
      d="M15.3672 10.0563C15.2031 9.85 14.9031 9.81719 14.6969 9.98125C14.4484 10.1781 14.1531 10.2859 13.8344 10.2859C13.5156 10.2859 13.2203 10.1828 12.9719 9.98125C12.7656 9.81719 12.4656 9.85 12.3016 10.0563C12.1375 10.2625 12.1703 10.5625 12.3766 10.7266C12.7891 11.0594 13.3094 11.2375 13.8391 11.2375C14.3688 11.2375 14.8891 11.0547 15.3016 10.7266C15.4984 10.5625 15.5313 10.2625 15.3672 10.0563Z" />
    <path
      d="M27.6531 16.8016C27.2687 15.7469 26.6031 14.8422 25.7265 14.1859C25.1031 13.7219 24.3953 13.4031 23.6312 13.2391C23.7953 11.7344 23.3265 10.1734 22.3468 8.9875C21.2875 7.70781 19.764 7 18.0578 7H17.7812C16.5859 7 15.4281 7.42188 14.4297 8.22344C14.2562 8.35938 14.05 8.43438 13.8297 8.43438C13.6094 8.43438 13.4031 8.35938 13.2297 8.22344C12.2359 7.42188 11.0781 7 9.88279 7H9.60623C8.37342 7 7.22029 7.375 6.27342 8.07813C5.39217 8.73438 4.72654 9.63438 4.34686 10.6938C3.96717 11.7438 3.89686 12.8594 4.15467 13.9188C4.42654 15.0625 5.06873 16.0797 6.01092 16.8672C6.7281 17.4672 7.5156 17.9828 8.34998 18.4C8.31717 18.9484 8.36404 19.4922 8.4906 20.0266C8.76248 21.1703 9.40467 22.1875 10.3469 22.975C12.5359 24.8031 15.3156 25.8063 18.1703 25.8063C21.025 25.8063 23.8047 24.7984 25.9937 22.975C26.9359 22.1875 27.5781 21.1703 27.85 20.0266C28.1031 18.9672 28.0375 17.8516 27.6531 16.8016ZM8.49998 17.4016C7.83435 17.0453 7.20623 16.6188 6.62029 16.1313C4.79217 14.6078 4.71248 12.4891 5.24217 11.0172C5.77654 9.53594 7.20623 7.95625 9.60154 7.95625H9.8781C10.8531 7.95625 11.8047 8.30781 12.6297 8.96875C12.9672 9.24063 13.3937 9.39063 13.825 9.39063C14.2562 9.39063 14.6828 9.24063 15.0203 8.96875C15.8453 8.30313 16.7968 7.95625 17.7718 7.95625H18.0484C19.464 7.95625 20.725 8.5375 21.6015 9.59688C22.4172 10.5813 22.8015 11.8703 22.675 13.1125C22.5812 13.1078 22.4828 13.1031 22.3843 13.1031H22.1078C20.9125 13.1031 19.7547 13.525 18.7562 14.3266C18.5828 14.4625 18.3765 14.5375 18.1562 14.5375C17.9359 14.5375 17.7297 14.4625 17.5562 14.3266C16.5578 13.525 15.4 13.1031 14.2047 13.1031H13.9281C12.6953 13.1031 11.5469 13.4781 10.5953 14.1813C9.71404 14.8375 9.04842 15.7375 8.66873 16.7969C8.60779 16.9984 8.54685 17.2 8.49998 17.4016ZM25.3797 22.2391C23.364 23.9219 20.8 24.85 18.1703 24.85C15.5406 24.85 12.9719 23.9219 10.9562 22.2391C9.1281 20.7156 9.04842 18.5969 9.5781 17.125C10.1125 15.6438 11.5422 14.0641 13.9375 14.0641H14.214C15.189 14.0641 16.1406 14.4156 16.9656 15.0766C17.3031 15.3484 17.7297 15.4984 18.1609 15.4984C18.5922 15.4984 19.0187 15.3484 19.3562 15.0766C20.1812 14.4109 21.1328 14.0641 22.1078 14.0641H22.3843C24.7797 14.0641 26.2093 15.6484 26.7437 17.125C27.2875 18.5969 27.2078 20.7156 25.3797 22.2391Z" />
    <path
      d="M19.6234 16.0985C19.4593 15.8922 19.1593 15.8594 18.9531 16.0235C18.7047 16.2204 18.4093 16.3282 18.0906 16.3282C17.7718 16.3282 17.4765 16.2251 17.2281 16.0235C17.0219 15.8594 16.7219 15.8922 16.5578 16.0985C16.3937 16.3047 16.4265 16.6047 16.6328 16.7688C17.0453 17.1016 17.5656 17.2797 18.0953 17.2797C18.625 17.2797 19.1453 17.0969 19.5578 16.7688C19.7593 16.6047 19.7922 16.3047 19.6234 16.0985Z" />
    <path
      d="M23.3171 22.4453C23.1953 22.2109 22.9093 22.1172 22.6749 22.239C21.2734 22.9562 19.7593 23.3219 18.1703 23.3219C17.9078 23.3219 17.6921 23.5375 17.6921 23.8C17.6921 24.0625 17.9078 24.2781 18.1703 24.2781C19.9093 24.2781 21.5734 23.8797 23.1109 23.0875C23.3453 22.9703 23.4343 22.6797 23.3171 22.4453Z" />
    <path
      d="M25.1688 21.0953C25 20.8937 24.7 20.8656 24.4938 21.0344C24.3813 21.1281 24.2688 21.2172 24.1563 21.3062C23.9453 21.4656 23.9078 21.7656 24.0672 21.9765C24.1609 22.0984 24.3016 22.164 24.4469 22.164C24.55 22.164 24.6484 22.1312 24.7375 22.0656C24.8641 21.9719 24.9859 21.8687 25.1078 21.7703C25.3094 21.5969 25.3375 21.2969 25.1688 21.0953Z" />
  </symbol>
  <symbol id="grape" viewBox="0 0 32 32">
    <path
      d="M20.443 16.7139C22.6035 15.225 22.0963 11.5147 19.5084 10.8008C19.3252 10.7491 18.5973 10.7773 18.508 10.6927C18.3624 10.5518 18.2732 9.88022 18.1605 9.67356C17.8364 9.07708 17.3198 8.59802 16.7139 8.30683C15.4458 7.69626 13.9147 7.95928 12.9706 9.01603C12.0595 7.7855 10.472 7.40976 9.10058 8.072C8.49001 8.36319 7.96398 8.83755 7.62582 9.41994C7.45205 9.72053 7.32524 10.0446 7.25479 10.3875C7.17494 10.7961 7.27827 11.1718 7.24539 11.571C7.22191 11.8481 7.28766 11.7918 6.98708 11.9045C6.818 11.9702 6.65361 12.0501 6.49393 12.144C6.14637 12.3554 5.84578 12.6325 5.60156 12.9565C5.13659 13.5765 4.89706 14.3608 4.92054 15.1358C4.92993 15.488 5.00038 15.8403 5.1225 16.1738C5.19295 16.3663 5.28688 16.5542 5.39021 16.7327C5.43717 16.8078 5.5452 16.9205 5.56868 16.9957C5.63913 17.2117 5.63913 17.0379 5.5358 17.2446C5.33854 17.6297 4.9769 17.9068 4.80312 18.3295C4.62465 18.7569 4.54011 19.2172 4.54481 19.6822C4.5495 20.119 4.63874 20.5511 4.80782 20.9503C4.88766 21.1428 5.01917 21.3072 5.10371 21.4951C5.17416 21.6501 5.23052 21.636 5.19295 21.7675C5.17416 21.8286 4.91115 22.0211 4.87357 22.0634C4.30058 22.6974 3.9953 23.5334 3.99999 24.3741C4.01408 26.1918 5.50762 27.7135 7.34872 27.6195C8.17533 27.5773 8.97377 27.2109 9.54207 26.6051C9.62661 26.5158 9.85674 26.079 9.95537 26.0462C10.0352 26.0227 10.4438 26.234 10.5284 26.2575C10.9605 26.3702 11.416 26.3843 11.8575 26.3045C12.6794 26.1589 13.4309 25.6892 13.9194 25.0129C14.0556 24.8297 14.1307 24.5996 14.2622 24.4211C14.2951 24.3788 14.3186 24.2004 14.3609 24.1769C14.3796 24.1675 14.6661 24.2614 14.7272 24.2708C15.2063 24.3648 15.7088 24.3413 16.1832 24.2098C16.681 24.0689 17.146 23.8059 17.5264 23.4536C17.6297 23.355 17.9444 22.8477 18.0571 22.8055C18.1839 22.7632 18.6113 22.9511 18.7616 22.9698C19.7573 23.0779 20.7671 22.6833 21.4528 21.9601C22.9323 20.382 22.4203 17.6391 20.443 16.7139C20.5699 16.6246 20.6967 16.5401 20.8235 16.4509C20.6967 16.5401 20.5699 16.6246 20.443 16.7139ZM17.8035 13.3511C17.9209 13.2149 18.0383 13.0552 18.1182 12.8955C18.1464 12.8485 18.1699 12.8015 18.1933 12.7499C18.3061 12.5197 18.4 12.2849 18.4564 12.036C18.5362 11.6931 18.4657 11.6462 18.8039 11.6133C19.128 11.5851 19.5178 11.7448 19.7855 11.9045C20.3256 12.2286 20.6779 12.7922 20.8188 13.398C20.955 13.9898 20.8939 14.6379 20.6121 15.1781C20.4618 15.4693 20.2458 15.7229 19.9828 15.9154C19.8935 15.9812 19.1092 16.3569 19.1092 16.2724C19.1092 16.2583 19.1092 16.2395 19.1092 16.2254C19.1139 16.1174 19.1092 16 19.0998 15.892C19.0998 15.8732 19.0951 15.8591 19.0951 15.8403C19.0951 15.8403 19.0951 15.8356 19.0951 15.8309C18.9965 14.8728 18.508 13.9945 17.7143 13.4403C17.7472 13.4168 17.7753 13.3839 17.8035 13.3511C17.8176 13.337 17.7753 13.3839 17.8035 13.3511C17.9209 13.2149 17.7753 13.3839 17.8035 13.3511ZM17.7378 14.746C17.7472 14.7554 17.7519 14.7648 17.7565 14.7741C17.874 14.9385 17.9632 15.117 18.0383 15.3002C18.0477 15.3237 18.0524 15.3424 18.0618 15.3659C18.0665 15.3753 18.0665 15.3847 18.0712 15.3941C18.0759 15.4082 18.0806 15.4223 18.0853 15.4364C18.137 15.5867 18.1605 15.7464 18.1839 15.9013C18.1839 15.9248 18.1886 15.9436 18.1886 15.9671C18.1886 15.9765 18.1886 15.9906 18.1933 16C18.1933 16.0235 18.198 16.0422 18.198 16.0657C18.198 16.0704 18.198 16.0751 18.198 16.0798C18.2074 16.2818 18.2027 16.5213 18.137 16.7139C18.1323 16.7327 18.1323 16.7514 18.1276 16.7655C17.7941 17.5734 17.2775 18.292 16.371 18.4845C15.8074 18.6066 15.1264 18.5033 14.6567 18.1511C14.6192 18.1276 14.5816 18.0994 14.5487 18.0759C13.5859 17.3432 13.4074 16.0235 13.9804 14.9902C14.5722 13.9194 15.6524 13.6047 16.7702 13.9804C16.7937 13.9898 16.8172 14.0039 16.8407 14.0133C16.8642 14.0227 16.8877 14.0368 16.9111 14.0462C16.9158 14.0462 16.9205 14.0509 16.9252 14.0509C16.991 14.0837 17.0567 14.1213 17.1178 14.1636C17.1742 14.2012 17.2305 14.2387 17.2869 14.281C17.3385 14.3186 17.3855 14.3608 17.4325 14.4078C17.4419 14.4172 17.4513 14.4219 17.456 14.4313C17.5217 14.483 17.7143 14.7178 17.7378 14.746C17.7425 14.7554 17.7096 14.7084 17.7378 14.746ZM12.8156 15.2532C12.7875 15.3565 12.764 15.4646 12.7452 15.5679C12.0783 15.5867 11.4912 15.2908 11.0309 14.8258C10.7444 14.5111 10.5472 14.126 10.4579 13.708C10.0211 12.562 11.0826 11.1718 12.1487 10.9041C12.0266 12.0736 12.5667 13.2712 13.5295 13.9522C13.1961 14.328 12.9519 14.7788 12.8156 15.2579C12.8344 15.1922 12.8532 15.1264 12.872 15.0559C12.8532 15.1264 12.8344 15.1875 12.8156 15.2532C12.7875 15.3565 12.9519 14.7695 12.8156 15.2532ZM13.4967 18.3436C12.9659 18.7194 12.4869 19.3017 12.3037 19.9358C12.2286 19.917 12.1534 19.8982 12.0783 19.87C11.8669 19.7996 11.6368 19.7855 11.416 19.7808C11.3268 19.7808 11.2376 19.7808 11.1483 19.7855C11.0779 19.7996 11.0121 19.8043 10.9417 19.8043C10.8853 19.809 10.829 19.8137 10.7773 19.8278C10.7726 19.8278 10.7679 19.8278 10.7679 19.8278C10.7444 19.8372 10.7209 19.8419 10.6974 19.8419C9.93189 19.4239 9.42465 18.5597 9.46692 17.6814V17.6767C9.46692 17.6532 9.46692 17.6297 9.47162 17.6062C9.47162 17.6015 9.47162 17.6015 9.47162 17.5968C9.47162 17.5781 9.47631 17.5593 9.47631 17.5452V17.5405C9.48101 17.4747 9.48571 17.3855 9.50449 17.3197C9.51858 17.2305 9.54207 17.1413 9.56555 17.0567C9.56555 17.052 9.56555 17.052 9.57025 17.0473C9.57025 17.0426 9.57494 17.0379 9.57494 17.0332C9.62191 16.8736 9.69236 16.7327 9.76281 16.5824C9.80038 16.5166 9.83796 16.4509 9.88492 16.3851C10.007 16.1972 10.162 16.0282 10.3405 15.8873C10.3922 15.8356 10.4438 15.7933 10.5096 15.7604C10.5284 15.7464 10.5472 15.7323 10.5659 15.7229C10.58 15.7135 10.5941 15.7041 10.6082 15.6994C11.1859 16.2113 11.9233 16.4931 12.6935 16.4931H12.7076C12.7217 16.6716 12.7405 16.9299 12.825 17.0943C12.8344 17.1272 12.8438 17.1601 12.8579 17.1976C12.8579 17.2023 12.8626 17.2023 12.8626 17.207C12.872 17.2399 12.8861 17.2728 12.8955 17.3104C13.027 17.6861 13.2337 18.0383 13.4967 18.3436ZM13.337 10.0963C13.337 10.0916 13.3417 10.0869 13.3417 10.0822V10.0775C14.4595 8.02973 17.6016 8.94558 17.6297 11.2141C17.6297 11.2188 17.6297 11.2235 17.6297 11.2282V11.2329C17.6297 11.7777 17.4419 12.3037 17.1131 12.7311C17.1084 12.7358 17.1084 12.7358 17.1037 12.7405C17.0286 12.8391 16.9393 12.9284 16.8501 13.0129C16.2301 12.8109 15.3753 12.7734 14.7742 13.074C14.6849 13.1068 14.3421 13.3276 14.2669 13.3229C14.1448 13.3182 13.9569 13.1162 13.8724 13.0458C13.6 12.8156 13.3839 12.5197 13.243 12.191C13.243 12.1863 13.2383 12.1816 13.2383 12.1816C12.9565 11.5147 13.0223 10.6599 13.3182 10.115C13.2947 10.1714 13.2994 10.162 13.337 10.0963C13.337 10.0916 13.2665 10.2278 13.337 10.0963ZM10.411 8.64029C11.2517 8.64029 12.0219 9.11935 12.4211 9.87082C12.4164 9.88022 12.4164 9.88491 12.4117 9.89431C12.407 9.9037 12.4023 9.91779 12.3976 9.92718C10.7585 10.0822 9.50449 11.5475 9.48101 13.1726C9.29314 13.0927 9.10997 12.9753 8.95498 12.8391C8.9362 12.825 8.92211 12.8109 8.90332 12.7968C7.21252 11.5241 8.40547 8.64029 10.411 8.64029ZM7.63991 12.6794C7.64461 12.6841 7.64461 12.6888 7.64931 12.6935C7.70567 12.7922 7.79021 12.9471 7.87475 13.0317C7.88884 13.0505 7.89823 13.0646 7.91232 13.0833C7.92171 13.0927 7.93111 13.1068 7.9405 13.1162C7.95459 13.1303 7.96398 13.1491 7.97807 13.1632C8.227 13.4638 8.55577 13.7503 8.91271 13.9241C9.10058 14.0227 9.48101 14.0696 9.62661 14.2012C9.7769 14.3327 9.87553 14.807 9.99295 14.9949C9.83326 15.0935 9.67827 15.2203 9.54676 15.3565C9.53737 15.3612 9.53267 15.3706 9.52328 15.3753C9.50919 15.3894 9.4998 15.3988 9.48571 15.4129C9.26966 15.6289 9.09119 15.8779 8.94089 16.1503C8.94089 16.155 8.9362 16.1597 8.9362 16.1597C8.88923 16.1972 8.86575 16.2442 8.86575 16.2959C8.85635 16.3194 8.84226 16.3428 8.83287 16.3663C8.83287 16.3663 8.83287 16.3663 8.83287 16.371C8.79999 16.4415 8.77181 16.5166 8.74363 16.5918C8.72015 16.6528 8.69197 16.7186 8.68258 16.7843C8.67788 16.8031 8.67318 16.8219 8.66849 16.8407C8.66379 16.8595 8.65909 16.8783 8.6544 16.897C8.6544 16.9017 8.6497 16.9111 8.6497 16.9158C8.645 16.9299 8.64031 16.944 8.64031 16.9581C8.64031 16.9628 8.64031 16.9628 8.64031 16.9675C8.61682 17.0708 8.60743 17.1788 8.57925 17.2822C8.57925 17.2869 8.57925 17.2869 8.57925 17.2869V17.2916C8.57925 17.2963 8.57925 17.301 8.57925 17.301V17.3104C8.55577 17.315 8.52759 17.3197 8.5041 17.3244C8.32563 17.3526 8.13306 17.3667 7.94989 17.3479H7.9452C7.92171 17.3479 7.90293 17.3432 7.87944 17.3432C7.87475 17.3432 7.87005 17.3432 7.86535 17.3432C7.67749 17.3197 7.48962 17.2728 7.31115 17.2023C7.22661 17.1695 7.14676 17.1319 7.06692 17.0896C7.02465 17.0614 6.98238 17.0379 6.94011 17.0192C6.91663 17.0051 6.89314 16.991 6.86966 16.9722C6.85087 16.9581 6.83209 16.9487 6.818 16.9346C6.818 16.9346 6.818 16.9346 6.8133 16.9346C6.76633 16.897 6.72406 16.8642 6.6771 16.8266C5.23991 15.6289 5.78473 13.0833 7.63991 12.6794C7.63052 12.6653 7.236 12.7687 7.17964 12.7828C7.33463 12.7405 7.48962 12.7123 7.63991 12.6794C7.64461 12.6841 6.60195 12.9049 7.63991 12.6794ZM6.36242 17.7518C6.52211 17.8599 6.83678 18.09 7.03404 18.09C7.31584 18.1933 7.63052 18.2638 7.93111 18.2779C8.0814 18.2873 8.25987 18.3013 8.41017 18.2685C8.52289 18.198 8.57925 18.1933 8.57925 18.2497C8.6544 18.7334 8.83757 19.3205 9.16633 19.6963C9.31193 19.8982 9.47631 20.0814 9.66418 20.2458L9.66888 20.2505C9.19921 20.5417 8.30684 21.3119 8.30684 21.9319C8.19882 21.9601 8.0814 21.9835 7.96868 21.9929C7.95929 21.9929 7.94989 21.9929 7.9405 21.9976C5.6861 22.2043 4.62935 19.1139 6.36242 17.7518C6.36712 17.7565 6.15107 17.9773 6.11819 17.9538C6.11819 17.9538 6.43287 17.7002 6.36242 17.7518C6.44226 17.8035 5.79882 18.198 6.36242 17.7518ZM7.19843 26.7178C6.01017 26.7178 5.09901 25.7738 4.95811 24.6231C4.89236 24.083 4.99569 23.5241 5.28218 23.0591C5.3996 22.8665 5.61565 22.5237 5.83639 22.4485C6.09471 22.3593 6.57377 22.6974 6.87905 22.8008C7.21721 22.8994 7.58825 22.9511 7.9405 22.9182C8.00156 22.9135 8.05792 22.9088 8.11897 22.9041C8.09549 23.3033 8.14715 23.7354 8.28336 24.1111C8.33502 24.2755 8.39608 24.454 8.48532 24.5996C8.60743 24.8391 8.76242 25.0927 8.95498 25.2853C9.18982 25.5577 9.218 25.5436 8.98316 25.8442C8.84696 26.018 8.69197 26.1683 8.51349 26.2951C8.12837 26.5722 7.66809 26.7178 7.19843 26.7178ZM13.5859 23.4677C13.5859 23.4724 13.5859 23.4724 13.5859 23.4677C13.2947 25.2477 11.1061 26.0556 9.78629 24.7968C9.19451 24.2286 8.84696 23.3925 9.06301 22.58C9.26966 21.8145 9.89901 20.9033 10.7585 20.7765C11.1859 20.6638 12.0501 20.6262 12.3976 20.9738C12.3976 20.9738 12.3976 20.9738 12.4023 20.9738C13.2853 21.4575 13.7409 22.5565 13.5906 23.4348C13.5953 23.3925 13.5953 23.4019 13.5859 23.4677C13.5859 23.4724 13.6047 23.3409 13.5859 23.4677ZM15.3331 23.416C15.0607 23.416 14.7882 23.3644 14.5346 23.2657C14.544 23.1389 14.5487 22.9933 14.5346 22.8665C14.5252 22.7303 14.5064 22.5941 14.483 22.4579C14.4783 22.4297 14.4736 22.4015 14.4642 22.3734C14.4642 22.3734 14.4642 22.3734 14.4642 22.3687C14.4595 22.3452 14.4548 22.317 14.4454 22.2935C14.4454 22.2888 14.4454 22.2888 14.4454 22.2888C14.328 21.8567 14.0931 21.1194 13.6939 20.8516C13.6751 20.8282 13.6564 20.8094 13.6376 20.7906C13.6282 20.7812 13.6188 20.7671 13.6094 20.7577C13.4685 20.6074 13.3088 20.4759 13.1444 20.3585C13.1444 20.3538 13.1491 20.3491 13.1491 20.3444C13.1538 20.3303 13.1585 20.3162 13.1632 20.3021C13.2055 20.1612 13.2712 20.0109 13.3464 19.8794C13.4497 19.6822 13.5859 19.499 13.7456 19.344C13.7597 19.3299 13.7691 19.3205 13.7832 19.3064C13.7973 19.2923 13.8066 19.283 13.8207 19.2736C13.8301 19.2642 13.8395 19.2548 13.8536 19.2454C13.8583 19.2407 13.863 19.236 13.8724 19.2313C13.8818 19.2219 13.8959 19.2125 13.9053 19.2031C14.0039 19.1139 14.1213 19.0387 14.2387 18.973C14.746 19.2923 15.319 19.452 15.9201 19.452C15.9201 19.4567 15.9201 19.4661 15.9201 19.4708C15.892 19.9405 15.9577 20.4102 16.1174 20.8516C16.2066 21.0959 16.4509 21.744 16.7092 21.8755C16.7139 21.8849 16.7233 21.8943 16.7327 21.899C16.7468 21.9178 16.7609 21.9319 16.7749 21.946C16.8689 22.0493 16.9675 22.1479 17.0755 22.2372C17.2775 22.3076 17.2916 22.4015 17.1272 22.5237C17.0567 22.6974 16.7984 22.8712 16.6528 22.9792C16.263 23.261 15.8074 23.416 15.3331 23.416ZM19.1139 22.0775C17.6861 22.0775 16.6387 20.6826 16.8548 19.3111C17.2728 19.1796 17.8035 18.9354 18.0806 18.5831C18.1135 18.5503 18.1464 18.5221 18.1746 18.4892C18.1792 18.4845 18.1839 18.4798 18.1886 18.4751C18.2309 18.4329 18.2732 18.3859 18.3108 18.3389C18.3248 18.3248 18.3342 18.3107 18.3483 18.2967C18.353 18.292 18.3577 18.2873 18.3624 18.2779C18.4329 18.1933 18.5268 18.0806 18.5785 17.982C18.6959 17.7988 18.8039 17.6015 18.8791 17.3996C18.8837 17.3855 18.8884 17.3761 18.8931 17.362C20.2035 17.2352 21.3495 18.3436 21.3965 19.6305C21.4434 20.8939 20.4149 22.0775 19.1139 22.0775Z" />
    <path
      d="M24.4446 10.7492C24.191 10.7492 23.9844 10.5425 23.9844 10.2889C23.9844 10.0353 24.191 9.82861 24.4446 9.82861C24.6983 9.82861 24.9049 10.0353 24.9049 10.2889C24.9049 10.5425 24.6983 10.7492 24.4446 10.7492Z" />
    <path
      d="M27.8027 11.8388C27.3894 10.1386 26.1542 8.68729 24.1252 7.51782C24.4164 7.07633 25.9241 4.18787 24.8532 4.0094C24.2004 3.90138 24.2051 5.03797 24.083 5.43719C23.8763 6.11821 23.571 6.77104 23.1296 7.33464C22.2748 8.45715 20.8517 9.0912 19.4568 9.0912C19.0622 9.06772 18.8227 9.56556 19.0857 9.86145C19.2689 10.0634 19.5789 10.0211 19.8278 10.0071C20.7296 9.95069 21.636 9.66419 22.4063 9.19453C21.5186 12.4916 23.7025 14.9573 26.3045 16.6247C26.3092 16.6294 26.3139 16.6294 26.3186 16.6341C26.3937 16.681 26.5018 16.7045 26.591 16.6951C26.5957 16.6951 26.6051 16.6951 26.6145 16.6904C26.6333 16.6904 26.6474 16.6857 26.6661 16.681C26.6943 16.6763 26.7225 16.6622 26.7507 16.6528C26.7554 16.6528 26.7554 16.6481 26.7601 16.6481C26.7648 16.6481 26.7648 16.6435 26.7695 16.6435C26.8352 16.6106 26.8916 16.5636 26.9339 16.5026C26.9339 16.5026 26.9386 16.4979 26.9386 16.4932C26.9902 16.4086 28.4086 14.3327 27.8027 11.8388C27.3894 10.1386 28.4086 14.3327 27.8027 11.8388ZM26.6521 15.0043C26.4078 14.22 26.1589 13.4356 25.8912 12.656C25.7644 12.2802 25.6047 11.3644 25.1115 11.308C24.3084 11.2188 24.7452 12.1769 24.8767 12.5433C25.1773 13.3793 25.4403 14.2341 25.708 15.0795C24.6701 14.2763 23.6791 13.2665 23.2845 11.9844C22.8994 10.7444 23.2094 9.49511 23.6744 8.32564C26.1166 9.73464 27.7652 12.1393 26.6521 15.0043C26.2669 13.7785 26.6521 15.0043 26.6521 15.0043Z" />
  </symbol>
  <symbol id="nut" viewBox="0 0 32 32">
    <path
      d="M25.8897 9.77338C25.7746 9.60552 25.5396 9.56715 25.3765 9.68225C25.2086 9.79736 25.1703 10.0324 25.2854 10.1954C26.5707 12.0228 27.2518 14.1235 27.2518 16.277C27.2518 19.0635 26.1055 21.759 24.0192 23.8741C22.446 25.4664 20.4221 26.6559 18.1679 27.3321C17.717 26.9676 17.4436 26.2434 17.3189 25.0492C17.7794 25.476 18.3933 25.7398 19.0647 25.7398C19.8465 25.7398 20.5803 25.3849 21.0647 24.7806C21.1271 24.7854 21.1894 24.7854 21.2518 24.7854C22.6667 24.7854 23.8225 23.6343 23.8225 22.2146C23.8225 21.9988 23.7986 21.7926 23.7458 21.5863C24.4221 21.3082 25.0216 20.8477 25.4628 20.2626C26 19.5528 26.283 18.7038 26.283 17.8118C26.283 16.9245 25.9952 16.0659 25.4676 15.3609C25.9808 14.8813 26.2782 14.205 26.2782 13.4856C26.2782 12.229 25.3861 11.1835 24.187 10.9628C24.1583 9.82134 23.3861 8.84772 22.3022 8.55036C21.9472 7.28417 20.7866 6.39209 19.4532 6.39209C18.7962 6.39209 18.1871 6.60791 17.6978 6.97242C17.9712 6.32494 18.3453 5.77818 18.7962 5.41847C20.9784 6.18106 22.9113 7.43285 24.3933 9.07314C24.5324 9.22662 24.7626 9.23621 24.9161 9.10192C25.0695 8.96763 25.0791 8.73261 24.9448 8.57914C22.7242 6.1283 19.5635 4.4976 16.048 4.0036C16.0144 3.9988 15.9808 3.9988 15.9424 4.0036C12.6523 4.46882 9.63549 5.94604 7.44844 8.16187C5.22302 10.4161 4 13.2986 4 16.277C4 19.2554 5.22302 22.1379 7.44844 24.3921C9.63549 26.6079 12.6523 28.0851 15.9472 28.5504C15.9664 28.5552 15.9808 28.5552 16 28.5552C16.0192 28.5552 16.0336 28.5552 16.0528 28.5504C19.3429 28.0851 22.3597 26.6079 24.5516 24.3921C26.7722 22.1379 28 19.2554 28 16.277C27.9904 13.9748 27.2662 11.7254 25.8897 9.77338ZM19.4532 7.13549C20.518 7.13549 21.4341 7.89329 21.6307 8.93405C21.6595 9.08273 21.7794 9.20264 21.9281 9.22662C22.7722 9.3753 23.3957 10.0803 23.4388 10.9341C22.8537 10.9916 22.307 11.2506 21.8849 11.6727C21.741 11.8165 21.741 12.0516 21.8849 12.1954C21.9568 12.2674 22.0528 12.3058 22.1439 12.3058C22.2398 12.3058 22.3309 12.2674 22.4029 12.1954C22.7482 11.8501 23.2086 11.6583 23.6978 11.6583C23.7074 11.6583 23.717 11.6583 23.7218 11.6535C23.741 11.6583 23.7554 11.6583 23.7746 11.6583C24.7578 11.7014 25.5252 12.5024 25.5252 13.4856C25.5252 13.994 25.3141 14.4688 24.9544 14.8141C24.211 14.1187 23.2326 13.735 22.2014 13.735C21.9952 13.735 21.8321 13.8981 21.8321 14.1043C21.8321 14.3106 21.9952 14.4736 22.2014 14.4736C23.0935 14.4736 23.9329 14.8189 24.5659 15.452C24.5851 15.4712 24.6043 15.4856 24.6235 15.5C24.6379 15.524 24.6523 15.5432 24.6667 15.5624C25.2326 16.1811 25.5396 16.9772 25.5396 17.8165C25.5396 18.5456 25.3094 19.241 24.8681 19.8261C24.5036 20.3058 24.0096 20.6847 23.458 20.9101C22.9976 20.1379 22.1679 19.6535 21.247 19.6535C20.5612 19.6535 19.9137 19.9221 19.4293 20.4065C19.2854 20.5504 19.2854 20.7854 19.4293 20.9293C19.5731 21.0731 19.8082 21.0731 19.952 20.9293C20.2974 20.5839 20.7578 20.3921 21.247 20.3921C21.9856 20.3921 22.6475 20.8285 22.9353 21.5096C23.0312 21.735 23.0791 21.9748 23.0791 22.2194C23.0791 23.1499 22.3837 23.9173 21.482 24.0324C21.5779 23.759 21.6307 23.4664 21.6307 23.1691C21.6307 22.9628 21.4676 22.7998 21.2614 22.7998C21.0552 22.7998 20.8921 22.9628 20.8921 23.1691C20.8921 23.5336 20.7866 23.8837 20.5851 24.1811C20.2446 24.6894 19.6739 24.9964 19.0647 24.9964C18.0576 24.9964 17.2326 24.1763 17.2326 23.1643C17.2326 22.6559 17.4388 22.1811 17.8082 21.8309C17.9472 21.7014 17.9616 21.4856 17.8465 21.3369C17.4436 20.8237 17.2326 20.205 17.2326 19.5528C17.2326 18.6511 17.6403 17.8165 18.3501 17.2602C18.3549 17.2554 18.3549 17.2554 18.3597 17.2506C18.8729 16.8525 19.4868 16.6415 20.1391 16.6415C20.3453 16.6415 20.5084 16.4784 20.5084 16.2722C20.5084 16.0659 20.3453 15.9029 20.1391 15.9029C19.4245 15.9029 18.7482 16.1043 18.1583 16.488C17.5731 15.8597 17.2374 15.0204 17.2374 14.1475C17.2374 13.2362 17.5923 12.3825 18.2302 11.735C18.2302 11.735 18.2302 11.7302 18.235 11.7302C18.8825 11.0779 19.7506 10.7134 20.6715 10.7134C20.8777 10.7134 21.0408 10.5504 21.0408 10.3441C21.0408 10.1379 20.8777 9.97482 20.6715 9.97482C19.6595 9.97482 18.7098 10.3297 17.952 10.982C17.5012 10.5647 17.2374 9.97482 17.2374 9.35132C17.2374 8.13309 18.2302 7.13549 19.4532 7.13549ZM4.73861 16.277C4.73861 13.4904 5.88489 10.795 7.97122 8.67986C9.39568 7.23621 11.1942 6.1235 13.1942 5.42326C13.6451 5.78297 14.024 6.32494 14.2926 6.97242C13.8034 6.61271 13.1942 6.39688 12.5372 6.39688C11.2038 6.39688 10.0432 7.28897 9.68825 8.55516C8.60432 8.85252 7.83213 9.82614 7.80336 10.9676C6.60432 11.193 5.71223 12.2386 5.71223 13.4904C5.71223 14.205 6.00959 14.8813 6.52278 15.3657C5.9952 16.0707 5.70743 16.9245 5.70743 17.8165C5.70743 17.9029 5.71223 17.994 5.71703 18.0803C5.73141 18.2818 5.90887 18.44 6.11031 18.4257C6.31175 18.4113 6.47002 18.2386 6.45564 18.0324C6.45084 17.9604 6.45084 17.8885 6.45084 17.8165C6.45084 16.982 6.76259 16.1811 7.32374 15.5624C7.34293 15.5432 7.35731 15.524 7.36691 15.5C7.38609 15.4856 7.40528 15.4712 7.42446 15.452C8.05755 14.8189 8.89688 14.4736 9.78897 14.4736C9.9952 14.4736 10.1583 14.3106 10.1583 14.1043C10.1583 13.8981 9.9952 13.735 9.78897 13.735C8.753 13.735 7.77938 14.1187 7.02158 14.8189C6.66187 14.4784 6.45084 13.9988 6.45084 13.4904C6.45084 12.5072 7.21823 11.7062 8.20144 11.6631C8.22062 11.6631 8.23501 11.6583 8.2542 11.6583C8.26379 11.6631 8.27338 11.6631 8.27818 11.6631C8.76739 11.6631 9.22782 11.8549 9.57314 12.2002C9.64508 12.2722 9.74101 12.3106 9.83213 12.3106C9.92806 12.3106 10.0192 12.2722 10.0911 12.2002C10.235 12.0564 10.235 11.8213 10.0911 11.6775C9.66906 11.2554 9.1223 10.9964 8.53717 10.9388C8.58034 10.0899 9.20384 9.3801 10.048 9.23141C10.2014 9.20743 10.3165 9.08753 10.3453 8.93885C10.5468 7.89808 11.4628 7.14029 12.5228 7.14029C13.7458 7.14029 14.7434 8.13789 14.7434 9.36091C14.7434 9.98441 14.4796 10.5695 14.0288 10.9916C13.271 10.3393 12.3213 9.98441 11.3094 9.98441C11.1031 9.98441 10.94 10.1475 10.94 10.3537C10.94 10.56 11.1031 10.723 11.3094 10.723C12.2302 10.723 13.0983 11.0827 13.7458 11.7398C13.7458 11.7398 13.7458 11.7446 13.7506 11.7446C14.3933 12.3921 14.7434 13.2506 14.7434 14.1571C14.7434 15.03 14.4077 15.8693 13.813 16.5024C13.223 16.1187 12.5468 15.9173 11.8321 15.9173C11.6259 15.9173 11.4628 16.0803 11.4628 16.2866C11.4628 16.4928 11.6259 16.6559 11.8321 16.6559C12.4844 16.6559 13.0983 16.8669 13.6115 17.265C13.6163 17.2698 13.6163 17.2698 13.6211 17.2746C14.3309 17.8309 14.7386 18.6655 14.7386 19.5671C14.7386 20.2194 14.5276 20.8381 14.1247 21.3513C14.0096 21.5 14.024 21.7158 14.1631 21.8453C14.5324 22.1954 14.7386 22.6703 14.7386 23.1787C14.7386 24.1859 13.9185 25.0108 12.9065 25.0108C12.2926 25.0108 11.7266 24.7038 11.3861 24.1954C11.1847 23.8933 11.0791 23.5432 11.0791 23.1835C11.0791 22.9772 10.9161 22.8141 10.7098 22.8141C10.5036 22.8141 10.3405 22.9772 10.3405 23.1835C10.3405 23.4808 10.3933 23.7734 10.4892 24.0468C9.59233 23.9317 8.89209 23.1643 8.89209 22.2338C8.89209 21.9892 8.94005 21.7494 9.03597 21.524C9.32374 20.8429 9.98561 20.4065 10.7242 20.4065C11.2134 20.4065 11.6739 20.5983 12.0192 20.9436C12.1631 21.0875 12.3981 21.0875 12.542 20.9436C12.6859 20.7998 12.6859 20.5647 12.542 20.4209C12.0576 19.9365 11.4101 19.6679 10.7242 19.6679C9.80815 19.6679 8.97362 20.1523 8.51319 20.9245C7.7554 20.6127 7.1271 20.0324 6.76259 19.2842C6.67146 19.1019 6.45084 19.0252 6.26858 19.1115C6.08633 19.2026 6.00959 19.4233 6.09592 19.6055C6.53717 20.512 7.29976 21.2266 8.22542 21.6055C8.17266 21.8118 8.14868 22.018 8.14868 22.2338C8.14868 23.6487 9.29976 24.8046 10.7194 24.8046C10.7818 24.8046 10.8441 24.8046 10.9065 24.7998C11.3909 25.4041 12.1247 25.759 12.9065 25.759C13.5827 25.759 14.1966 25.4952 14.6523 25.0683C14.5276 26.2626 14.2542 26.982 13.8034 27.3513C11.5492 26.6751 9.52518 25.4856 7.95204 23.8933C5.88969 21.759 4.73861 19.0635 4.73861 16.277ZM15.9952 27.8118C15.5348 27.7446 15.0839 27.6583 14.6379 27.5528C15.2422 26.7758 15.4964 25.4233 15.4964 23.1691C15.4964 22.5743 15.2854 21.994 14.9113 21.5384C15.295 20.9484 15.4964 20.2674 15.4964 19.5576C15.4964 18.5695 15.1031 17.6391 14.4077 16.958C15.1031 16.1954 15.4964 15.1882 15.4964 14.1475C15.4964 13.1787 15.1655 12.2578 14.5612 11.5144C15.1511 10.958 15.4964 10.1763 15.4964 9.35611C15.4964 8.42566 15.3141 7.5048 14.9736 6.68465C14.7194 6.08034 14.3933 5.56715 14.0096 5.16906C14.6571 4.98201 15.3237 4.84293 16 4.74221C16.6811 4.84293 17.3429 4.98201 17.9904 5.16906C17.6067 5.56715 17.2758 6.08513 17.0264 6.68465C16.6859 7.5048 16.5036 8.42566 16.5036 9.35611C16.5036 10.1763 16.8489 10.958 17.4388 11.5144C16.8345 12.2578 16.5036 13.1787 16.5036 14.1475C16.5036 15.1882 16.8969 16.1954 17.5923 16.958C16.8969 17.6391 16.5036 18.5695 16.5036 19.5576C16.5036 20.2722 16.705 20.9484 17.0887 21.5384C16.7146 21.994 16.5036 22.5743 16.5036 23.1691C16.5036 25.4185 16.7578 26.771 17.3621 27.5528C16.9065 27.6583 16.4556 27.7446 15.9952 27.8118Z" />
  </symbol>
  <symbol id="washing-powder" viewBox="0 0 32 32">
    <path
      d="M8.48126 11.45C8.74015 11.45 8.95001 11.2401 8.95001 10.9812C8.95001 10.7223 8.74015 10.5125 8.48126 10.5125C8.22238 10.5125 8.01251 10.7223 8.01251 10.9812C8.01251 11.2401 8.22238 11.45 8.48126 11.45Z" />
    <path
      d="M11.4875 11.45C11.7464 11.45 11.9562 11.2401 11.9562 10.9812C11.9562 10.7223 11.7464 10.5125 11.4875 10.5125C11.2286 10.5125 11.0187 10.7223 11.0187 10.9812C11.0187 11.2401 11.2286 11.45 11.4875 11.45Z" />
    <path
      d="M9.98126 13.4187C10.2401 13.4187 10.45 13.2088 10.45 12.95C10.45 12.6911 10.2401 12.4812 9.98126 12.4812C9.72238 12.4812 9.51251 12.6911 9.51251 12.95C9.51251 13.2088 9.72238 13.4187 9.98126 13.4187Z" />
    <path
      d="M12.9875 13.4187C13.2464 13.4187 13.4562 13.2088 13.4562 12.95C13.4562 12.6911 13.2464 12.4812 12.9875 12.4812C12.7286 12.4812 12.5187 12.6911 12.5187 12.95C12.5187 13.2088 12.7286 13.4187 12.9875 13.4187Z" />
    <path
      d="M3.9375 13.4187C4.19638 13.4187 4.40625 13.2088 4.40625 12.95C4.40625 12.6911 4.19638 12.4812 3.9375 12.4812C3.67862 12.4812 3.46875 12.6911 3.46875 12.95C3.46875 13.2088 3.67862 13.4187 3.9375 13.4187Z" />
    <path
      d="M6.97498 13.4187C7.23386 13.4187 7.44373 13.2088 7.44373 12.95C7.44373 12.6911 7.23386 12.4812 6.97498 12.4812C6.71609 12.4812 6.50623 12.6911 6.50623 12.95C6.50623 13.2088 6.71609 13.4187 6.97498 13.4187Z" />
    <path
      d="M9.98126 9.47498C10.2401 9.47498 10.45 9.26511 10.45 9.00623C10.45 8.74734 10.2401 8.53748 9.98126 8.53748C9.72238 8.53748 9.51251 8.74734 9.51251 9.00623C9.51251 9.26511 9.72238 9.47498 9.98126 9.47498Z" />
    <path
      d="M6.97498 9.47498C7.23386 9.47498 7.44373 9.26511 7.44373 9.00623C7.44373 8.74734 7.23386 8.53748 6.97498 8.53748C6.71609 8.53748 6.50623 8.74734 6.50623 9.00623C6.50623 9.26511 6.71609 9.47498 6.97498 9.47498Z" />
    <path
      d="M5.50623 11.45C5.76511 11.45 5.97497 11.2401 5.97497 10.9812C5.97497 10.7223 5.76511 10.5125 5.50623 10.5125C5.24734 10.5125 5.03748 10.7223 5.03748 10.9812C5.03748 11.2401 5.24734 11.45 5.50623 11.45Z" />
    <path
      d="M30.525 14.0188H26.0563C25.7938 14.0188 25.5875 14.2312 25.5875 14.4875C25.5875 14.75 25.8 14.9563 26.0563 14.9563H30.525C30.8188 14.9563 31.0563 15.1938 31.0563 15.4875V15.6438C31.0563 15.9062 30.8688 16.125 30.6125 16.1687L16.4188 18.5312C16.1938 18.5688 16.025 18.7625 16.025 18.9937V21.5C16.025 23.45 14.4375 25.0375 12.4875 25.0375H4.46875C2.51875 25.0375 0.93125 23.45 0.93125 21.5V14.9563H23.7438C24.0063 14.9563 24.2125 14.7438 24.2125 14.4875C24.2125 14.225 24 14.0188 23.7438 14.0188H16.8063C16.5375 13.375 15.8375 11.8063 14.7438 10.2125C12.8563 7.45625 10.6875 6 8.48125 6C6.275 6 4.1 7.45625 2.20625 10.2125C0.8125 12.2375 0.05625 14.2375 0.025 14.3188V14.325C0.01875 14.3375 0.01875 14.35 0.0125 14.3625C0.0125 14.3688 0.0125 14.3687 0.00625 14.375C0 14.3875 0 14.4 0 14.4187C0 14.425 0 14.425 0 14.4312C0 14.45 0 14.4688 0 14.4812V21.5C0 23.9688 2.00625 25.975 4.475 25.975H12.4938C14.9625 25.975 16.9688 23.9688 16.9688 21.5V19.3938L30.7688 17.0938C31.4813 16.975 32 16.3625 32 15.6438V15.4875C31.9938 14.675 31.3313 14.0188 30.525 14.0188ZM8.48125 6.9375C12.3125 6.9375 14.9688 12.1687 15.7938 14.0125H1.16875C1.9875 12.1687 4.64375 6.9375 8.48125 6.9375Z" />
  </symbol>
  <symbol id="oat" viewBox="0 0 32 32">
    <path
      d="M19.4701 18.3212C19.9297 19.0528 20.6565 19.4513 21.4349 19.4513C21.796 19.4513 22.1665 19.3669 22.5276 19.1887L23.925 18.6964L22.9918 17.5428C22.6026 16.9238 22.0164 16.5533 21.3787 16.4502C21.8664 16.4174 22.3494 16.2345 22.7667 15.8828L24.0047 15.0715L22.823 14.1758C22.5557 13.9132 22.2509 13.7397 21.932 13.6225C22.1993 13.4209 22.4291 13.1536 22.6073 12.83L23.4654 11.6202L22.0399 11.2169C21.4818 10.9824 20.9097 10.9637 20.4033 11.1278C20.7644 10.837 21.0457 10.4338 21.1958 9.93669L21.7913 8.58148L20.3142 8.47362C19.0715 8.23447 17.9601 8.90035 17.5944 10.1102L17.1161 11.1934C16.8206 10.8558 16.5018 10.5416 16.1547 10.2556L17.2989 9.64596C18.4807 9.19109 19.0621 8.03283 18.7292 6.8136L18.5135 5.34584L17.2052 6.03986C16.0234 6.49472 15.442 7.65299 15.7749 8.8769L15.9531 10.0868C15.5592 9.78195 15.1372 9.51934 14.687 9.28957L15.245 8.27198C15.9859 7.24502 15.8406 5.95545 14.8886 5.11606L13.9086 4L13.1958 5.29894C12.4549 6.32591 12.6002 7.61547 13.5522 8.45486L14.0211 8.98007C13.9179 8.93787 13.8195 8.89566 13.7116 8.85815C13.5287 8.79719 13.3411 8.86753 13.2333 9.01758L12.4642 8.13599C11.7515 7.09027 10.4947 6.78077 9.37866 7.38101L8 7.92497L8.97069 9.04103C9.43963 9.73036 10.143 10.1008 10.8933 10.1008C11.0199 10.1008 11.1465 10.0868 11.2685 10.0633C10.6729 10.2931 10.1852 10.7714 9.92732 11.4467L9.24267 12.7644L10.7104 12.966C10.9308 13.0223 11.1512 13.0504 11.3669 13.0504C11.7468 13.0504 12.1079 12.9566 12.4267 12.7878C12.3095 13.1348 12.2673 13.5193 12.3236 13.9226L12.3611 15.4045L13.7444 14.8746C13.857 14.8464 13.9648 14.8042 14.068 14.762C14.0352 14.8746 14.0023 14.9918 13.9836 15.1137L13.585 16.5393L15.0621 16.4408C15.0809 16.4408 15.0996 16.4361 15.1184 16.4408C14.8839 16.6518 14.6776 16.9097 14.5276 17.2239L13.7304 18.4713L15.1747 18.8042C15.3435 18.8652 15.5123 18.9027 15.6811 18.9261C15.0621 18.9777 14.476 19.2778 14.0399 19.8265L12.9848 20.8675L14.3212 21.51C14.7386 21.7773 15.1887 21.9086 15.6249 21.9086C16.3095 21.9086 16.9707 21.5944 17.4537 20.9894L17.51 20.9332C16.1923 24.1172 13.3552 26.4525 9.61782 27.1653C9.38804 27.2075 9.23798 27.4326 9.28019 27.6577C9.3177 27.8593 9.4959 28 9.69285 28C9.72098 28 9.74443 27.9953 9.77257 27.9906C13.5756 27.2638 16.5111 24.9801 18.0258 21.8429L17.9695 23.0856C17.7585 24.3329 18.4572 25.4256 19.6811 25.7632L21.0551 26.3212L21.1254 24.8394C21.3365 23.592 20.6377 22.4994 19.4138 22.1618L18.1336 21.6366C18.3634 21.1301 18.551 20.6049 18.7104 20.061L18.8886 20.6893C19.0856 21.9367 20.0938 22.7573 21.3599 22.687L22.837 22.7855L22.4338 21.3599C22.2368 20.1079 21.2192 19.2919 19.9625 19.3623L18.9027 19.2919C19.0012 18.8277 19.0762 18.354 19.1184 17.871L19.4701 18.3212ZM17.5287 6.80891L17.857 6.64009L17.9039 6.94959L17.9132 7.00117C18.143 7.81243 17.7679 8.55803 16.9801 8.85346L16.6518 9.02227L16.6049 8.71278L16.5955 8.6612C16.3611 7.84994 16.7362 7.10434 17.5287 6.80891ZM13.8898 5.77257L14.0727 5.449L14.2837 5.68347L14.3212 5.72098C14.959 6.27433 15.0528 7.09965 14.551 7.7796L14.3681 8.10317L14.1618 7.8687L14.1243 7.83118C13.4865 7.28253 13.3927 6.45252 13.8898 5.77257ZM18.8136 23.2169L18.8324 22.8511L19.1231 22.9683L19.1747 22.9871C19.9906 23.2028 20.4408 23.9015 20.2907 24.7362L20.272 25.102L19.9812 24.9848L19.9297 24.966C19.1137 24.7503 18.6635 24.0469 18.8136 23.2169ZM19.9672 20.2204H19.9953C20.8347 20.1594 21.4865 20.6893 21.6084 21.524L21.7069 21.8804L21.3646 21.857H21.3365C20.5018 21.9179 19.8453 21.388 19.7233 20.5533L19.6249 20.197L19.9672 20.2204ZM19.1653 16.9472C19.1653 16.8253 19.1747 16.7081 19.1747 16.5862C19.17 16.1735 19.1278 15.7655 19.0668 15.3669L19.5967 15.7702C19.9672 16.1313 20.4033 16.347 20.8581 16.422C20.5533 16.4455 20.2438 16.5252 19.9437 16.6753L19.1653 16.9472ZM18.5744 13.585L19.6108 13.8804C19.6764 13.9086 19.7421 13.932 19.803 13.9508C19.7515 13.9883 19.6999 14.0164 19.6483 14.0586L18.8886 14.5557C18.8089 14.2227 18.7011 13.8992 18.5744 13.585ZM22.2884 18.007L22.5182 18.2978L22.2227 18.4009L22.1712 18.4244C21.4209 18.8042 20.619 18.5791 20.1782 17.8617L19.9484 17.5709L20.2438 17.4678L20.2954 17.4443C21.0457 17.0598 21.8476 17.2849 22.2884 18.007ZM22.5463 15.0152L22.2837 15.1887L22.2415 15.2216C21.5991 15.7749 20.7691 15.7421 20.1688 15.1512L19.8781 14.9261L20.1407 14.7526L20.1829 14.7198C20.8206 14.1665 21.6553 14.1993 22.2556 14.7902L22.5463 15.0152ZM21.7304 11.9953L22.0821 12.0985L21.8992 12.3564L21.871 12.4033C21.4771 13.1489 20.6893 13.4256 19.9156 13.0926L19.5639 12.9894L19.7468 12.7315L19.7749 12.6846C20.1735 11.939 20.9566 11.6624 21.7304 11.9953ZM18.3775 10.415L18.3962 10.3634C18.6307 9.55217 19.3435 9.12075 20.1735 9.29426L20.5393 9.32239L20.4127 9.60844L20.3939 9.66002C20.1594 10.4713 19.442 10.898 18.6166 10.7292L18.2509 10.7011L18.3775 10.415ZM18.476 11.5639C18.6448 11.5967 18.8136 11.6155 18.9777 11.6155C19.2263 11.6155 19.4607 11.578 19.6858 11.5076C19.4326 11.7046 19.2122 11.9578 19.0434 12.2673L18.3962 13.177C18.1196 12.5721 17.7726 12 17.3646 11.4842L18.476 11.5639ZM17.3927 13.0504L16.4549 13.1114C16.0938 13.0926 15.7562 13.1536 15.4467 13.2708C15.5358 12.9519 15.5686 12.6049 15.517 12.2392L15.4795 10.7808C16.2673 11.3998 16.9144 12.1735 17.3927 13.0504ZM9.66002 8.55334L9.42087 8.27198L9.71161 8.15944L9.76319 8.13599C10.4994 7.72802 11.3107 7.92497 11.7749 8.62837L12.0141 8.90973L11.7233 9.02227L11.6717 9.04572C10.9355 9.45369 10.1243 9.25205 9.66002 8.55334ZM12.0563 9.79601L13.1676 9.35991C13.2005 9.49121 13.2943 9.60844 13.4302 9.65533C14.1759 9.91325 14.8558 10.2931 15.4607 10.7667L14.0961 11.2872C13.8898 11.3388 13.7069 11.4185 13.5334 11.5076L14.2181 10.1899L12.7503 9.98828C12.4033 9.89918 12.0703 9.88511 11.7515 9.93669C11.8546 9.89449 11.9578 9.85229 12.0563 9.79601ZM10.9121 12.1454L10.5463 12.0891L10.6917 11.8124L10.7151 11.7608C11.0012 10.9683 11.7421 10.5838 12.558 10.8089L12.9238 10.8652L12.7784 11.1419L12.755 11.1934C12.4642 11.9859 11.7233 12.3705 10.9121 12.1454ZM13.5287 14.0633L13.1817 14.1899L13.1723 13.8757L13.1676 13.8195C13.0363 12.9848 13.5006 12.2954 14.3212 12.0985L14.6682 11.9719L14.6776 12.286L14.6823 12.3423C14.8136 13.177 14.3494 13.8664 13.5287 14.0633ZM15.0668 15.5967L14.7245 15.6202L14.8089 15.32L14.8183 15.2638C14.9355 14.4666 15.5264 13.9555 16.3095 13.9555C16.347 13.9555 16.3845 13.9555 16.4267 13.9601H16.4549L16.7972 13.9367L16.7128 14.2368L16.7034 14.2931C16.5815 15.1278 15.9437 15.653 15.095 15.6014L15.0668 15.5967ZM17.5334 14.4431L17.7304 13.7444C18.0539 14.5135 18.2509 15.3482 18.3072 16.2157L17.4678 16.0234C17.2286 15.939 16.9894 15.8968 16.755 15.8828C17.163 15.5311 17.4443 15.0387 17.5334 14.4431ZM15.0903 17.9226L15.2591 17.66L15.2872 17.6131C15.6436 16.8488 16.4174 16.5346 17.2052 16.83L17.5662 16.9144L17.3974 17.177L17.3693 17.2239C17.0129 17.9883 16.2392 18.3072 15.4513 18.007L15.0903 17.9226ZM16.8441 20.4174L16.8066 20.4596C16.2907 21.1254 15.4654 21.2614 14.762 20.8019L14.4338 20.6377L14.6589 20.4174L14.6964 20.3751C15.2122 19.7093 16.0328 19.5733 16.7409 20.0328L17.0692 20.197L16.8441 20.4174ZM17.177 19.3107C16.8722 19.1137 16.544 19.0012 16.2204 18.9496C17.0223 18.8839 17.7351 18.4103 18.1196 17.6038L18.3118 17.3036C18.2743 18.129 18.1524 18.9215 17.9461 19.6811L17.177 19.3107Z" />
  </symbol>
  <symbol id="seaweed" viewBox="0 0 32 32">
    <path
      d="M21.625 5C21.3672 5 21.1562 5.21094 21.1562 5.46875C21.1562 5.72656 21.3672 5.9375 21.625 5.9375C21.8828 5.9375 22.0938 5.72656 22.0938 5.46875C22.0938 5.21094 21.8828 5 21.625 5Z" />
    <path
      d="M27.5312 26.5625H24.8922C24.9906 26.3891 25.0469 26.1922 25.0469 25.9813V24.8844C25.0469 24.7156 25.1687 24.5984 25.3422 24.5984H26.7531C27.4422 24.5984 28 24.0313 28 23.3328C28 21.9969 27.4797 20.7453 26.5375 19.7984C25.7453 19.0063 24.4094 19.5828 24.4094 20.6797C24.4094 20.8484 24.2734 20.9891 24.1 20.9891H22.6891C22.5344 20.9891 22.3844 21.0172 22.2438 21.0734L22.0984 20.675C22.0422 20.5156 22.1219 20.3375 22.2812 20.2813L23.3125 19.9063C23.9594 19.6719 24.2922 18.9547 24.0578 18.3078L23.6828 17.2766C23.6266 17.1172 23.7062 16.9391 23.8656 16.8828C24.9109 16.5031 24.9719 15.0547 23.9641 14.5812C22.7547 14.0187 21.4 13.9578 20.1437 14.4125C19.4969 14.6469 19.1641 15.3641 19.3984 16.0109L19.7734 17.0422C19.8297 17.2016 19.75 17.3797 19.5906 17.4359L18.9531 17.6656C18.9578 17.3422 18.8359 17.0188 18.5875 16.775L17.8094 15.9969C17.6875 15.875 17.6875 15.6828 17.8094 15.5609L18.5875 14.7828C19.075 14.2953 19.075 13.5078 18.5875 13.0203C17.65 12.0828 16.3984 11.5625 15.0625 11.5625C13.9422 11.5625 13.4031 12.9125 14.1812 13.6906C14.3031 13.8125 14.3031 14.0047 14.1812 14.1266L13.4031 14.9047C12.9156 15.3922 12.9156 16.1797 13.4031 16.6672L14.1812 17.4453C14.3031 17.5672 14.3031 17.7594 14.1812 17.8812L13.8906 18.1719C13.7547 18.0172 13.5813 17.8953 13.3797 17.8203L12.3484 17.4453C12.2688 17.4172 12.2078 17.3609 12.175 17.2859C12.1422 17.2109 12.1375 17.1266 12.1656 17.0516L12.5406 16.0203C12.775 15.3734 12.4422 14.6609 11.7953 14.4219C10.5438 13.9672 9.18438 14.0234 7.975 14.5906C6.97188 15.0594 7.03281 16.5078 8.07344 16.8875C8.23281 16.9438 8.31719 17.1219 8.25625 17.2813L7.88125 18.3125C7.64688 18.9594 7.97969 19.6719 8.62656 19.9109L9.65781 20.2859C9.81719 20.3422 9.90156 20.5203 9.84062 20.6797L9.69531 21.0734C9.55469 21.0172 9.4 20.9891 9.25 20.9891H7.89062C7.72187 20.9891 7.58125 20.8531 7.58125 20.6797C7.58125 19.5828 6.24531 19.0063 5.45312 19.7984C4.53437 20.7266 4 22.0203 4 23.3469C4 24.0359 4.55781 24.5938 5.24688 24.5938H6.60625C6.77969 24.5938 6.90625 24.7156 6.90625 24.8797V25.9766C6.90625 26.1875 6.95781 26.3844 7.05156 26.5578H4.46875C4.21094 26.5578 4 26.7688 4 27.0266C4 27.2844 4.21094 27.4953 4.46875 27.4953C5.36875 27.4953 26.2375 27.4953 27.5312 27.4953C27.7891 27.4953 28 27.2844 28 27.0266C28 26.7688 27.7891 26.5625 27.5312 26.5625ZM10.0375 26.5625C9.81719 26.3797 9.54063 26.2813 9.25469 26.2813H8.15781C7.98437 26.2813 7.84375 26.1453 7.84375 25.9813V24.8844C7.84375 24.1953 7.3 23.6609 6.60625 23.6609H5.24688C5.07812 23.6609 4.9375 23.525 4.9375 23.3516C4.9375 22.2688 5.36875 21.2188 6.12813 20.4641C6.32031 20.2719 6.65312 20.4078 6.65312 20.6797C6.65312 21.3688 7.21094 21.9266 7.9 21.9266L9.25937 21.9219C9.35312 21.9219 9.44219 21.9688 9.50313 22.0391C9.51719 22.0719 9.53594 22.1047 9.55937 22.1328C9.57344 22.1656 9.57812 22.2031 9.57812 22.2406V23.3281C9.57812 24.0266 10.1313 24.5938 10.8109 24.5938H11.9078C12.0766 24.5938 12.2031 24.7156 12.2031 24.8797V25.9766C12.2031 26.1875 12.2547 26.3844 12.3531 26.5578H10.0375V26.5625ZM14.5609 26.2813H13.4641C13.2906 26.2813 13.1453 26.1453 13.1453 25.9813V24.8844C13.1453 24.1953 12.6062 23.6609 11.9125 23.6609H10.8156C10.6562 23.6609 10.5203 23.5109 10.5203 23.3328V22.2359C10.5203 22.0859 10.4922 21.9406 10.4406 21.8047L10.7313 21.0031C10.9656 20.3563 10.6328 19.6438 9.98594 19.4047L8.95469 19.0297C8.79531 18.9734 8.71094 18.7953 8.77188 18.6359L9.14688 17.6047C9.38125 16.9578 9.04844 16.2453 8.40156 16.0063C8.14375 15.9125 8.125 15.5563 8.37813 15.4391C9.3625 14.9797 10.4641 14.9328 11.4813 15.3031C11.6406 15.3594 11.725 15.5375 11.6641 15.6969L11.2891 16.7281C11.1766 17.0422 11.1906 17.3797 11.3312 17.6797C11.4719 17.9797 11.7203 18.2094 12.0344 18.3219L13.0656 18.6969C13.1453 18.725 13.2063 18.7859 13.2437 18.8609C12.9344 19.3438 12.9906 19.9953 13.4125 20.4125L14.1906 21.1906C14.3125 21.3125 14.3125 21.5047 14.1906 21.6266L13.4125 22.4047C12.925 22.8922 12.925 23.6797 13.4125 24.1672L14.6406 25.3953C14.5562 25.6578 14.5563 25.9391 14.6547 26.2109L14.6828 26.2906C14.6406 26.2859 14.5984 26.2813 14.5609 26.2813ZM15.2453 24.6734L14.0688 23.4969C13.9469 23.375 13.9469 23.1828 14.0688 23.0609L14.8469 22.2828C15.3344 21.7953 15.3344 21.0078 14.8469 20.5203L14.0688 19.7422C13.9469 19.6203 13.9469 19.4281 14.0688 19.3063L14.8469 18.5281C15.3344 18.0406 15.3344 17.2531 14.8469 16.7656C14.1344 16.0156 13.9797 15.9922 13.9797 15.7719C13.9797 15.6875 14.0125 15.6125 14.0688 15.5563L14.8469 14.7781C15.3344 14.2906 15.3344 13.5031 14.8469 13.0156C14.6547 12.8234 14.7906 12.4906 15.0625 12.4906C16.1453 12.4906 17.1672 12.9125 17.9313 13.6813C18.0531 13.8031 18.0531 13.9953 17.9313 14.1172L17.1531 14.8953C16.6656 15.3828 16.6656 16.1703 17.1531 16.6578L17.9313 17.4359C18.0531 17.5578 18.0531 17.75 17.9313 17.8719L17.1531 18.65C16.6656 19.1375 16.6656 19.925 17.1531 20.4125L17.6922 20.9516L16.975 21.2141C16.6609 21.3266 16.4125 21.5563 16.2719 21.8563C16.1312 22.1563 16.1172 22.4938 16.2297 22.8078L16.6047 23.8391C16.6609 23.9984 16.5813 24.1766 16.4219 24.2328L15.3906 24.6078C15.3438 24.6266 15.2922 24.65 15.2453 24.6734ZM18.0156 19.9438L17.8187 19.7469C17.7062 19.6344 17.6969 19.4563 17.7953 19.3344C17.8187 19.4094 17.8141 19.3906 18.0156 19.9438ZM19.6328 24.3922L20.0078 25.4234C20.0641 25.5828 19.9844 25.7609 19.825 25.8172L18.7938 26.1922C18.5875 26.2672 18.4094 26.3938 18.2687 26.5625H15.7797L15.5312 25.8828C15.475 25.7234 15.5547 25.5453 15.7141 25.4891L16.7453 25.1141C17.3922 24.8797 17.725 24.1625 17.4906 23.5156L17.1156 22.4844C17.0875 22.4094 17.0922 22.325 17.125 22.25C17.1578 22.175 17.2234 22.1188 17.2984 22.0906L18.3297 21.7156C18.4891 21.6594 18.6297 21.5703 18.7516 21.4578L18.7562 21.4531C18.7609 21.4484 18.7656 21.4438 18.7703 21.4391C19.1219 21.0969 19.2438 20.5813 19.075 20.1219L18.7 19.0906C18.6438 18.9313 18.7234 18.7531 18.8828 18.6969L19.9141 18.3219C20.5609 18.0875 20.8937 17.375 20.6594 16.7234L20.2844 15.6922C20.2281 15.5328 20.3078 15.3547 20.4672 15.2984C21.4844 14.9281 22.5859 14.975 23.5703 15.4344C23.8188 15.5516 23.8047 15.9078 23.5469 16.0016C22.9 16.2359 22.5672 16.9484 22.8016 17.5953L23.1766 18.6266C23.2328 18.7859 23.1531 18.9641 22.9938 19.0203L21.9625 19.3953C21.3156 19.6297 20.9828 20.3469 21.2172 20.9938L21.5453 21.8891C21.55 21.9594 21.5734 22.0297 21.6109 22.0906C21.6297 22.2313 21.55 22.3672 21.4094 22.4188L20.3781 22.7938C19.7312 23.0328 19.3984 23.7453 19.6328 24.3922ZM24.1094 24.8797V25.9766C24.1094 26.15 23.9406 26.2297 23.7859 26.2297H22.6891C22.4125 26.2297 22.1359 26.3469 21.9016 26.5578H20.4156C20.875 26.2484 21.0906 25.6531 20.8891 25.1L20.5141 24.0688C20.4578 23.9094 20.5375 23.7313 20.6969 23.675L21.7281 23.3C22.3 23.0938 22.6141 22.5172 22.5344 21.9594C22.5812 21.9359 22.6328 21.9172 22.6844 21.9172H24.0953C24.7844 21.9172 25.3422 21.3641 25.3422 20.675C25.3422 20.3984 25.675 20.2625 25.8672 20.4594C26.6406 21.2234 27.0625 22.2453 27.0625 23.3281C27.0625 23.5016 26.9172 23.6563 26.7531 23.6563H25.3422C24.6484 23.6563 24.1094 24.1953 24.1094 24.8797Z" />
    <path
      d="M18.3438 5.9375C17.3078 5.9375 16.4688 6.77656 16.4688 7.8125C16.4688 8.84844 17.3078 9.6875 18.3438 9.6875C19.3797 9.6875 20.2188 8.84844 20.2188 7.8125C20.2188 6.77656 19.3797 5.9375 18.3438 5.9375ZM18.3438 8.75C17.8281 8.75 17.4062 8.32812 17.4062 7.8125C17.4062 7.29688 17.8281 6.875 18.3438 6.875C18.8594 6.875 19.2812 7.29688 19.2812 7.8125C19.2812 8.32812 18.8594 8.75 18.3438 8.75Z" />
    <path
      d="M20.6875 10.625C19.9141 10.625 19.2812 11.2578 19.2812 12.0312C19.2812 12.8047 19.9141 13.4375 20.6875 13.4375C21.4609 13.4375 22.0938 12.8047 22.0938 12.0312C22.0938 11.2578 21.4609 10.625 20.6875 10.625ZM20.6875 12.5C20.4297 12.5 20.2188 12.2891 20.2188 12.0312C20.2188 11.7734 20.4297 11.5625 20.6875 11.5625C20.9453 11.5625 21.1562 11.7734 21.1562 12.0312C21.1562 12.2891 20.9453 12.5 20.6875 12.5Z" />
  </symbol>
  <symbol id="seeds" viewBox="0 0 32 32">
    <g clip-path="url(#clip0)">
      <path
        d="M26.4822 14.1448L26.3037 13.4356L25.6462 13.971C25.4114 13.3135 25.1624 12.919 25.0497 12.7546L24.9229 12.5761L24.7022 12.5573C24.5566 12.5479 24.2372 12.5386 23.7769 12.5949L24.0681 11.7072L23.2556 11.9045C23.0301 11.9609 22.7812 12.0313 22.5135 12.1205C22.5135 12.1205 22.5135 12.1205 22.5135 12.1159C22.6168 6.76164 20.3624 4.38513 20.1041 4.1362C20.0994 4.13151 20.0947 4.13151 20.09 4.12681C20.0853 4.12211 20.0806 4.11272 20.0759 4.10802C20.0431 4.08454 20.0102 4.07045 19.9726 4.05166C19.9538 4.04227 19.9397 4.03288 19.9209 4.02348C19.8599 4.0047 19.7941 3.9953 19.7284 4C19.7284 4 19.7284 4 19.7237 4C19.3667 4.03757 16.1213 4.48376 12.8337 8.75303C12.6458 9.03953 12.472 9.34012 12.3076 9.6454C10.8141 8.57456 9.6728 8.30215 9.33933 8.2411C9.20313 8.21761 9.06223 8.25518 8.9589 8.34442C8.78982 8.49002 7.78474 9.40587 6.991 11.3738C6.9816 11.3973 6.97221 11.416 6.96282 11.4395C6.49315 12.6278 6.09863 14.1824 6 16.1785C6.03757 17.3339 6.21605 18.5127 6.53542 19.6775C6.85479 20.8423 7.30098 21.946 7.87867 22.9933C9.22192 25.0129 10.4431 25.5155 11.4387 25.5155C12.0305 25.5155 12.5472 25.337 12.9558 25.1961C13.1718 25.1209 14.1065 24.8579 14.2614 24.825C14.7264 25.7691 15.5249 26.1589 16.1072 26.4407C16.3139 26.5393 17.3049 27.1076 17.4975 27.2297C17.9953 27.5585 18.6622 28 19.5875 28C20.4658 28 21.5742 27.6008 22.9879 26.3233C23.7816 25.4779 24.4861 24.5198 25.0826 23.4677C25.6791 22.4204 26.1487 21.3213 26.4775 20.1706C27.0411 17.4184 26.7922 15.3753 26.4822 14.1448ZM23.4528 13.5906C23.8755 13.5014 24.1996 13.4826 24.411 13.4779C24.5331 13.6892 24.7115 14.0556 24.8759 14.591L22.4947 16.5166L23.4528 13.5906ZM18.62 5.24931C18.2489 5.80352 17.8779 6.43288 17.4834 7.18904C17.3659 7.41448 17.4505 7.69628 17.6759 7.81839C17.7464 7.85597 17.8215 7.87006 17.892 7.87006C18.0611 7.87006 18.2207 7.78082 18.3053 7.62113C18.8313 6.62074 19.3057 5.85519 19.7941 5.20235C20.4282 6.03836 21.6587 8.17064 21.5836 12.0595C21.5695 12.2051 21.5507 12.3507 21.5272 12.4963C21.5131 12.501 21.5037 12.5057 21.4896 12.5151C21.3675 12.5714 21.2407 12.6278 21.1092 12.6935C21.0247 12.7358 20.9401 12.7781 20.8556 12.8204C20.8086 12.8438 20.7569 12.872 20.71 12.8955C20.2356 13.1491 19.7659 13.4356 19.2963 13.7597C19.2634 13.7785 19.2352 13.802 19.2023 13.8254C19.0943 13.9006 18.9863 13.9804 18.8783 14.0603C18.8313 14.0931 18.789 14.126 18.7421 14.1636C18.6434 14.2387 18.5448 14.3139 18.4462 14.3937C18.3851 14.4454 18.3194 14.4971 18.2536 14.5487C18.1691 14.6145 18.0892 14.6849 18.0047 14.7554C17.8544 14.8822 17.7041 15.0137 17.5538 15.1499C17.3566 15.3613 17.164 15.5773 16.9761 15.8027C16.591 16.2677 16.2294 16.7609 15.8959 17.2822C15.7456 17.517 15.6 17.7566 15.4591 18.0008C15.4403 18.0337 15.4215 18.0712 15.4027 18.1041C15.2431 18.3859 15.0975 18.6724 14.9566 18.9636C14.9519 18.9683 14.9519 18.9777 14.9472 18.9871L14.9378 19.0106C14.9331 19.02 14.9284 19.0294 14.9237 19.0387C14.9096 19.0716 14.8908 19.1092 14.8767 19.1421C15.2431 16.1456 15.9147 13.3323 16.8869 10.7726C16.9761 10.5331 16.8587 10.2654 16.6145 10.1714C16.375 10.0822 16.1025 10.1996 16.0133 10.4438C14.9894 13.1538 14.2849 16.1362 13.9186 19.3159C13.8341 19.2924 13.7542 19.2642 13.665 19.2407C12.6411 18.9542 11.3636 18.602 11.4247 15.4928C11.5327 14.4125 11.7816 13.3229 12.1573 12.2521C12.3546 11.6885 12.5988 11.1202 12.8806 10.5566C12.8806 10.5519 12.8806 10.5519 12.8853 10.5472C13.1061 10.1104 13.3409 9.68767 13.5945 9.29315C15.553 6.75695 17.4364 5.6955 18.62 5.24931ZM13.9796 23.9327C13.8012 23.9749 12.9605 24.2098 12.6552 24.3178C11.6501 24.6654 10.4008 25.1022 8.6771 22.5143C8.15108 21.5656 7.73307 20.5276 7.43718 19.4333C7.13659 18.3389 6.96751 17.2352 6.93464 16.1879C7.02387 14.4501 7.34325 13.0881 7.73307 12.0313C8.43288 11.9984 9.13268 11.9045 9.809 11.7354C10.0579 11.6744 10.2129 11.4207 10.1472 11.1718C10.0861 10.9229 9.83249 10.7679 9.58356 10.829C9.1092 10.9464 8.62544 11.0215 8.13699 11.0685C8.62544 10.0681 9.13738 9.47162 9.40039 9.20391C9.82309 9.31194 10.7342 9.62661 11.8849 10.4767C11.8708 10.5049 11.8614 10.5378 11.8474 10.5659C11.7534 10.7679 11.6595 10.9746 11.575 11.1812C11.4716 11.4348 11.373 11.6838 11.2885 11.9327C10.8892 13.0693 10.6262 14.234 10.5041 15.4223C10.429 19.2877 12.3076 19.8137 13.4254 20.1237C13.6462 20.1847 14.3037 20.4665 14.3178 20.4665C14.3225 20.4665 14.3366 20.4665 14.3366 20.4665C14.3272 20.49 14.3225 20.5182 14.3131 20.5464C14.2239 20.7906 14.1487 21.0254 14.083 21.2509C14.0783 21.265 14.0783 21.2744 14.0736 21.2885C14.0219 21.5374 13.9843 21.7722 13.9562 21.9977C13.9468 22.0728 13.9421 22.1479 13.9327 22.2231C13.9186 22.3687 13.9045 22.519 13.8951 22.6552C13.8904 22.7303 13.8904 22.7961 13.8904 22.8712C13.8857 23.0121 13.8904 23.1483 13.8951 23.2798C13.8998 23.3315 13.8998 23.3832 13.9045 23.4301C13.9186 23.6039 13.9374 23.7636 13.9656 23.9139C13.975 23.9186 13.975 23.928 13.9796 23.9327ZM25.5804 19.9546C25.2798 20.9973 24.8431 22.0258 24.2795 23.0121C23.7205 23.9984 23.0583 24.9002 22.3444 25.6611C20.0102 27.7699 18.9065 27.0419 18.0188 26.4548C17.7511 26.2763 16.807 25.7409 16.5205 25.6C15.9523 25.3229 15.3041 25.0035 14.9988 24.1581C14.9988 24.1487 14.9988 24.1393 14.9941 24.1346C14.7687 23.4865 14.7687 22.5988 14.9894 21.4998C15.0458 21.3025 15.1115 21.1006 15.182 20.9033C15.2431 20.7249 15.3135 20.537 15.3933 20.335C15.5155 20.0204 15.6517 19.7104 15.7926 19.4098C15.802 19.3863 15.816 19.3581 15.816 19.3581C15.816 19.3581 15.816 19.3581 15.816 19.3534C15.9616 19.0434 16.1166 18.7476 16.281 18.4564C16.4125 18.2262 16.5487 18.0008 16.6896 17.78C16.8352 17.5546 16.9855 17.3339 17.1405 17.1225L17.1452 17.1178C17.1452 17.1178 17.1452 17.1178 17.1452 17.1131C17.4834 16.6481 17.8403 16.2067 18.216 15.8074C18.4086 15.6337 18.6012 15.4693 18.789 15.3143C18.8454 15.2673 18.9018 15.225 18.9534 15.1781C19.0943 15.0654 19.2305 14.9573 19.3667 14.8587C19.4231 14.8164 19.4795 14.7742 19.5358 14.7319C19.6814 14.6286 19.8223 14.5252 19.9632 14.4313C20.0055 14.4031 20.0477 14.375 20.09 14.3468C20.4611 14.1025 20.818 13.8912 21.1609 13.708C21.2313 13.6704 21.3018 13.6376 21.3675 13.6047C21.4661 13.5577 21.5648 13.5061 21.6587 13.4591C21.7761 13.4027 21.8935 13.3511 22.011 13.3041C22.2317 13.2102 22.4477 13.1256 22.645 13.0552L20.6254 19.2313L25.726 15.1029C25.9233 16.2536 25.9937 17.8881 25.5804 19.9546Z" />
      <path
        d="M19.5828 15.9389C19.4372 16.0235 16.0462 18.1135 15.8301 22.3311C15.816 22.5894 16.0133 22.8055 16.2716 22.8196C16.281 22.8196 16.2857 22.8196 16.2951 22.8196C16.5393 22.8196 16.746 22.627 16.7601 22.3781C16.9479 18.6677 20.0289 16.7562 20.0618 16.7374C20.2826 16.6059 20.353 16.3194 20.2215 16.0986C20.09 15.8779 19.8035 15.8074 19.5828 15.9389Z" />
    </g>
    <defs>
      <clipPath id="clip0">
        <rect width="20.8157" height="24" fill="white" transform="translate(6 4)" />
      </clipPath>
    </defs>
  </symbol>
  <symbol id="play" viewBox="0 0 16 22">
    <path class="st0" d="M0,2.4v17.2c0,1.9,2,3.1,3.5,2L15,13c1.3-0.9,1.3-3,0-3.9L3.5,0.4C2-0.7,0,0.5,0,2.4z" />
  </symbol>
  <symbol id="pause" viewBox="0 0 47.607 47.607">
    <g>
      <path d="M17.991,40.976c0,3.662-2.969,6.631-6.631,6.631l0,0c-3.662,0-6.631-2.969-6.631-6.631V6.631C4.729,2.969,7.698,0,11.36,0
		l0,0c3.662,0,6.631,2.969,6.631,6.631V40.976z" />
      <path d="M42.877,40.976c0,3.662-2.969,6.631-6.631,6.631l0,0c-3.662,0-6.631-2.969-6.631-6.631V6.631
		C29.616,2.969,32.585,0,36.246,0l0,0c3.662,0,6.631,2.969,6.631,6.631V40.976z" />
    </g>
  </symbol>
  <symbol id="volume" viewBox="0 0 18 22">
    <path class="st0"
      d="M15.9,0.3L7.4,6.6C6.7,6.2,5.9,6,5,6c-2.8,0-5,2.2-5,5s2.2,5,5,5c0.9,0,1.7-0.2,2.4-0.6l8.5,6.4	c0.9,0.7,2.1,0,2.1-1.1V1.4C18,0.3,16.8-0.4,15.9,0.3z" />
  </symbol>
</svg>